<?xml version="1.0" encoding="UTF-8" standalone="no"?>
<svg
   xmlns:dc="http://purl.org/dc/elements/1.1/"
   xmlns:cc="http://creativecommons.org/ns#"
   xmlns:rdf="http://www.w3.org/1999/02/22-rdf-syntax-ns#"
   xmlns:svg="http://www.w3.org/2000/svg"
   xmlns="http://www.w3.org/2000/svg"
   xmlns:sodipodi="http://sodipodi.sourceforge.net/DTD/sodipodi-0.dtd"
   xmlns:inkscape="http://www.inkscape.org/namespaces/inkscape"
   version="1.1"
   id="Capa_1"
   viewBox="0 0 24.000001 24.000001"
   sodipodi:docname="chat.svg"
   width="24"
   height="24"
   inkscape:version="0.92.2 5c3e80d, 2017-08-06">
  <metadata
     id="metadata54">
    <rdf:RDF>
      <cc:Work
         rdf:about="">
        <dc:format>image/svg+xml</dc:format>
        <dc:type
           rdf:resource="http://purl.org/dc/dcmitype/StillImage" />
        <dc:title />
      </cc:Work>
    </rdf:RDF>
  </metadata>
  <defs
     id="defs52" />
  <sodipodi:namedview
     pagecolor="#ffffff"
     bordercolor="#666666"
     borderopacity="1"
     objecttolerance="10"
     gridtolerance="10"
     guidetolerance="10"
     inkscape:pageopacity="0"
     inkscape:pageshadow="2"
     inkscape:window-width="845"
     inkscape:window-height="665"
     id="namedview50"
     showgrid="false"
     inkscape:zoom="5.6568542"
     inkscape:cx="-7.6325156"
     inkscape:cy="22.84848"
     inkscape:window-x="15"
     inkscape:window-y="43"
     inkscape:window-maximized="0"
     inkscape:current-layer="Capa_1" />
  <path
     style="fill:#bebebe;stroke-width:0.05903805"
     d="m 13.790066,16.484525 c -0.258169,0 -0.513212,-0.02202 -0.765137,-0.06612 l -0.198363,-0.02362 -0.472298,-0.07085 C 10.589554,16.076336 8.9308816,15.334585 7.5698273,14.184409 L 7.3478441,13.971867 C 6.2095312,12.99804 5.4092121,11.68845 5.0618913,10.231215 4.9953551,9.9657782 4.9480079,9.6958694 4.9202008,9.4235831 2.558679,10.316238 1.0000767,12.200727 1.0000767,14.259974 c -0.00945,1.516096 0.8548706,2.994407 2.3615196,4.019306 0.130179,0.08797 0.2080506,0.234913 0.2078144,0.392013 v 3.088868 l 2.36152,-2.167876 c 0.1092201,-0.101189 0.2597677,-0.144937 0.4061814,-0.118076 0.5297476,0.09742 1.0672368,0.146415 1.6058264,0.146415 2.7157565,0 5.1953555,-1.261052 6.3194405,-3.136099 z"
     id="path45"
     inkscape:connector-curvature="0" />
  <path
     style="fill:#bebebe;stroke-width:0.05903805"
     d="m 14.422961,2.2398388 c -4.727761,0 -8.5675985,2.9849505 -8.5675985,6.6547631 0,3.6698071 3.8492725,6.6547581 8.5770335,6.6547581 0.662179,-1.25e-4 1.322927,-0.06023 1.974239,-0.17947 h 0.08501 c 0.118673,-9.16e-4 0.233321,0.04298 0.32117,0.122802 l 3.060529,2.800757 v -4.009866 c -2.48e-4,-0.157091 0.07764,-0.304034 0.207816,-0.391999 C 21.913705,12.625804 23,10.802712 23,8.8946019 23,5.2247893 19.150726,2.2398388 14.422963,2.2398388 Z"
     id="path47"
     inkscape:connector-curvature="0" />
</svg>
