<?xml version="1.0" encoding="iso-8859-1"?>
<!-- Generator: Adobe Illustrator 19.0.0, SVG Export Plug-In . SVG Version: 6.00 Build 0)  -->
<svg version="1.1" id="Capa_1" xmlns="http://www.w3.org/2000/svg" xmlns:xlink="http://www.w3.org/1999/xlink" x="0px" y="0px"
	 viewBox="0 0 372.641 372.641" style="enable-background:new 0 0 372.641 372.641;" xml:space="preserve">
<g>
	<g>
		<path style="fill:#bebebe;" d="M216.641,262.281c-4.373,0-8.693-0.373-12.96-1.12l-3.36-0.4l-8-1.2c-29.891-4.194-57.986-16.758-81.04-36.24l-3.76-3.6
			c-19.281-16.495-32.837-38.677-38.72-63.36c-1.127-4.496-1.929-9.068-2.4-13.68c-40,15.12-66.4,47.04-66.4,81.92
			c-0.16,25.68,14.48,50.72,40,68.08c2.205,1.49,3.524,3.979,3.52,6.64v52.32l40-36.72c1.85-1.714,4.4-2.455,6.88-2
			c8.973,1.65,18.077,2.48,27.2,2.48c46,0,88-21.36,107.04-53.12H216.641z"/>
	</g>
</g>
<g>
	<g>
		<path style="fill:#bebebe;" d="M227.361,21.001c-80.08,0-145.12,50.56-145.12,112.72c0,62.16,65.2,112.72,145.28,112.72
			c11.216-0.002,22.408-1.02,33.44-3.04h1.44c2.01-0.015,3.952,0.728,5.44,2.08l51.84,47.44v-67.92
			c-0.004-2.661,1.315-5.15,3.52-6.64c31.04-21.44,49.44-52.32,49.44-84.64C372.641,71.561,307.441,21.001,227.361,21.001z"/>
	</g>
</g>
<g>
</g>
<g>
</g>
<g>
</g>
<g>
</g>
<g>
</g>
<g>
</g>
<g>
</g>
<g>
</g>
<g>
</g>
<g>
</g>
<g>
</g>
<g>
</g>
<g>
</g>
<g>
</g>
<g>
</g>
</svg>
