<?xml version="1.0" encoding="UTF-8" standalone="no"?>
<svg
   xmlns:dc="http://purl.org/dc/elements/1.1/"
   xmlns:cc="http://creativecommons.org/ns#"
   xmlns:rdf="http://www.w3.org/1999/02/22-rdf-syntax-ns#"
   xmlns:svg="http://www.w3.org/2000/svg"
   xmlns="http://www.w3.org/2000/svg"
   xmlns:sodipodi="http://sodipodi.sourceforge.net/DTD/sodipodi-0.dtd"
   xmlns:inkscape="http://www.inkscape.org/namespaces/inkscape"
   viewBox="0 0 24 24"
   version="1.1"
   id="svg92"
   sodipodi:docname="chrome.svg"
   width="24"
   height="24"
   inkscape:version="0.92.2 5c3e80d, 2017-08-06">
  <metadata
     id="metadata98">
    <rdf:RDF>
      <cc:Work
         rdf:about="">
        <dc:format>image/svg+xml</dc:format>
        <dc:type
           rdf:resource="http://purl.org/dc/dcmitype/StillImage" />
        <dc:title />
      </cc:Work>
    </rdf:RDF>
  </metadata>
  <defs
     id="defs96" />
  <sodipodi:namedview
     pagecolor="#ffffff"
     bordercolor="#666666"
     borderopacity="1"
     objecttolerance="10"
     gridtolerance="10"
     guidetolerance="10"
     inkscape:pageopacity="0"
     inkscape:pageshadow="2"
     inkscape:window-width="982"
     inkscape:window-height="697"
     id="namedview94"
     showgrid="false"
     inkscape:zoom="4.72"
     inkscape:cx="-6.8855927"
     inkscape:cy="25"
     inkscape:window-x="62"
     inkscape:window-y="85"
     inkscape:window-maximized="0"
     inkscape:current-layer="svg92" />
  <path
     d="M 12,1 C 5.9342174,1 1,5.9342174 1,12 1,18.065783 5.9342174,23 12,23 18.065783,23 23,18.065783 23,12 23,5.9342174 18.065783,1 12,1 Z M 3.8901304,6.1001739 7.2398696,11.558087 C 7.4636957,9.1275653 9.512087,7.2173913 12,7.2173913 h 8.83013 c 0.167392,0.3089565 0.316609,0.6293913 0.451957,0.9565217 h -6.424478 c 1.166,0.8728261 1.925,2.26074 1.925,3.826087 a 4.7472174,4.7472174 0 0 1 -0.623175,2.35113 c -0.0033,0.0067 -0.0024,0.01387 -0.0063,0.02057 l -4.374598,7.660783 a 10.251043,10.251043 0 0 1 -1.056479,-0.07939 l 3.179956,-5.566957 A 4.7529566,4.7529566 0 0 1 12,16.782609 c -1.70213,0 -3.1952609,-0.897218 -4.0427391,-2.240175 -0.011,-0.01387 -0.023913,-0.02487 -0.033478,-0.04017 L 3.3109566,6.985913 C 3.4883913,6.6793478 3.682087,6.3847391 3.8901304,6.1001739 Z M 12,8.173913 A 3.826087,3.826087 0 0 0 8.173913,12 3.826087,3.826087 0 0 0 12,15.826087 3.826087,3.826087 0 0 0 15.826087,12 3.826087,3.826087 0 0 0 12,8.173913 Z"
     id="path90"
     inkscape:connector-curvature="0"
     style="fill:#bebebe;stroke-width:0.47826087" />
</svg>
