<?xml version="1.0" encoding="UTF-8" standalone="no"?>
<svg
   xmlns:dc="http://purl.org/dc/elements/1.1/"
   xmlns:cc="http://creativecommons.org/ns#"
   xmlns:rdf="http://www.w3.org/1999/02/22-rdf-syntax-ns#"
   xmlns:svg="http://www.w3.org/2000/svg"
   xmlns="http://www.w3.org/2000/svg"
   xmlns:sodipodi="http://sodipodi.sourceforge.net/DTD/sodipodi-0.dtd"
   xmlns:inkscape="http://www.inkscape.org/namespaces/inkscape"
   height="24"
   width="24"
   version="1.1"
   id="svg136"
   sodipodi:docname="firefox.svg"
   inkscape:version="0.92.2 5c3e80d, 2017-08-06">
  <metadata
     id="metadata142">
    <rdf:RDF>
      <cc:Work
         rdf:about="">
        <dc:format>image/svg+xml</dc:format>
        <dc:type
           rdf:resource="http://purl.org/dc/dcmitype/StillImage" />
        <dc:title />
      </cc:Work>
    </rdf:RDF>
  </metadata>
  <defs
     id="defs140" />
  <sodipodi:namedview
     pagecolor="#ffffff"
     bordercolor="#666666"
     borderopacity="1"
     objecttolerance="10"
     gridtolerance="10"
     guidetolerance="10"
     inkscape:pageopacity="0"
     inkscape:pageshadow="2"
     inkscape:window-width="885"
     inkscape:window-height="678"
     id="namedview138"
     showgrid="false"
     inkscape:zoom="9.8333333"
     inkscape:cx="3.0000003"
     inkscape:cy="12"
     inkscape:window-x="85"
     inkscape:window-y="102"
     inkscape:window-maximized="0"
     inkscape:current-layer="svg136" />
  <path
     d="M 23,11.574006 C 23,11.083726 22.880024,10.348307 22.760048,9.8580267 22.400119,7.7743382 21.320335,5.9357891 20.000597,4.4649496 19.760645,4.0972397 19.280739,3.7295299 18.800836,3.3618202 17.481099,2.2586906 15.921409,1.5232709 14.121768,1.1555612 10.522482,0.54271142 6.9231986,1.7684108 4.5236758,4.3423797 4.2265537,3.8966478 4.0566089,3.2862666 3.9237952,2.7489704 2.854228,3.8221398 2.5887012,4.9519915 2.963986,6.3034987 2.0178951,7.6325032 1.2993602,8.9449481 1,10.543287 1.0764654,10.321293 1.7437797,9.9802026 1.6442484,9.9805964 1.0443677,13.167416 1.8842008,16.476804 3.8038189,18.928204 6.6832464,22.482733 11.602269,23.953571 15.921409,22.360162 20.120573,20.766751 23,16.599375 23,11.941718 Z M 14.001791,2.2586906 c 1.799642,0.36771 3.479308,1.2256995 4.799045,2.4513989 0.119972,0.1225696 0.239953,0.3677099 0.239953,0.3677099 -0.359929,-0.3677099 -2.246956,-1.3326566 -2.726861,-1.0875167 2.01454,1.0778946 -0.835284,4.8972352 1.02996,6.2197473 1.76455,1.251116 0.339243,4.910705 -2.142337,5.899064 -2.48158,0.98836 -5.181564,0.349596 -5.518901,-1.348269 0,0 0.889682,0.09461 1.319737,0 1.329835,-0.292553 3.839235,-1.225699 3.719259,-1.715979 1.95e-4,-0.367821 -0.275562,-0.56603 -0.62572,-0.748619 -0.359929,-0.122568 -1.82672,0.445801 -2.735485,0.315793 -0.984532,-0.140846 -2.157696,-0.670302 -2.7575762,-1.160583 0,-0.122568 -0.119977,-0.857991 -0.119977,-0.98056 C 8.362912,10.34831 8.842817,9.9805964 8.842817,9.9805964 9.500721,9.1193414 10.10188,9.6664544 10.917901,9.0704932 11.27783,8.825354 11.57792,8.4107861 11.803266,8.0566189 c 0,0 0.599881,-1.1031297 -0.119974,-0.9805599 C 10.92496,7.02423 10.162228,6.4743542 9.572521,6.4725837 c 0,0 -0.489749,-0.5367944 -0.489749,-0.6593643 C 9.202745,5.5680792 10.042579,3.7295299 10.402507,3.60696 10.162553,3.1166803 8.9627929,3.4843901 8.7228408,3.8521 7.4424931,4.942059 6.9296678,4.7420141 6.0833655,4.4649496 8.242936,2.6264006 11.122364,1.7684108 14.001791,2.2586906 Z"
     id="path134"
     inkscape:connector-curvature="0"
     style="fill:#bebebe;stroke-width:1.01075208" />
</svg>
