<?xml version="1.0" encoding="iso-8859-1"?>
<!-- Generator: Adobe Illustrator 19.0.0, SVG Export Plug-In . SVG Version: 6.00 Build 0)  -->
<svg version="1.1" id="Capa_1" xmlns="http://www.w3.org/2000/svg" xmlns:xlink="http://www.w3.org/1999/xlink" x="0px" y="0px"
	 viewBox="0 0 374.88 374.88" style="enable-background:new 0 0 374.88 374.88;" xml:space="preserve">
<g>
	<g>
		<path style="fill:#bebebe;" d="M357.44,66.24H17.28c-5.552,0.011-10.761,2.69-14,7.2l14.08,8.8L187.44,188.4l170-106.16l14-8.8
			C368.201,68.93,362.992,66.251,357.44,66.24z"/>
	</g>
</g>
<g>
	<g>
		<path style="fill:#bebebe;" d="M358.88,289.12L225.28,183.6l-33.6,21.04c-2.594,1.621-5.886,1.621-8.48,0l-33.6-21.04L16,289.12l-13.6,10.8
			c3.065,5.376,8.772,8.702,14.96,8.72H357.6c6.188-0.018,11.894-3.344,14.96-8.72L358.88,289.12z"/>
	</g>
</g>
<g>
	<g>
		<polygon style="fill:#bebebe;" points="16,100.16 0,90.24 0,281.44 16,268.8 135.12,174.56 		"/>
	</g>
</g>
<g>
	<g>
		<polygon style="fill:#bebebe;" points="358.88,100.16 239.76,174.56 358.88,268.8 374.88,281.44 374.88,90.24 		"/>
	</g>
</g>
<g>
</g>
<g>
</g>
<g>
</g>
<g>
</g>
<g>
</g>
<g>
</g>
<g>
</g>
<g>
</g>
<g>
</g>
<g>
</g>
<g>
</g>
<g>
</g>
<g>
</g>
<g>
</g>
<g>
</g>
</svg>
