<?xml version="1.0" encoding="UTF-8" standalone="no"?>
<!-- Created with Inkscape (http://www.inkscape.org/) -->

<svg
   xmlns:dc="http://purl.org/dc/elements/1.1/"
   xmlns:cc="http://creativecommons.org/ns#"
   xmlns:rdf="http://www.w3.org/1999/02/22-rdf-syntax-ns#"
   xmlns:svg="http://www.w3.org/2000/svg"
   xmlns="http://www.w3.org/2000/svg"
   xmlns:sodipodi="http://sodipodi.sourceforge.net/DTD/sodipodi-0.dtd"
   xmlns:inkscape="http://www.inkscape.org/namespaces/inkscape"
   version="1.1"
   id="svg3753"
   width="24"
   height="24"
   viewBox="0 0 24 24"
   sodipodi:docname="ghidra.svg"
   inkscape:version="0.92.2 5c3e80d, 2017-08-06">
  <metadata
     id="metadata3759">
    <rdf:RDF>
      <cc:Work
         rdf:about="">
        <dc:format>image/svg+xml</dc:format>
        <dc:type
           rdf:resource="http://purl.org/dc/dcmitype/StillImage" />
        <dc:title />
      </cc:Work>
    </rdf:RDF>
  </metadata>
  <defs
     id="defs3757" />
  <sodipodi:namedview
     pagecolor="#ffffff"
     bordercolor="#666666"
     borderopacity="1"
     objecttolerance="10"
     gridtolerance="10"
     guidetolerance="10"
     inkscape:pageopacity="0"
     inkscape:pageshadow="2"
     inkscape:window-width="856"
     inkscape:window-height="634"
     id="namedview3755"
     showgrid="false"
     inkscape:zoom="10.230769"
     inkscape:cx="6.6400027"
     inkscape:cy="18.581202"
     inkscape:window-x="105"
     inkscape:window-y="122"
     inkscape:window-maximized="0"
     inkscape:current-layer="layer1" />
  <g
     id="g3763"
     transform="matrix(0.08521156,0,0,0.08519211,0.93407126,0.90888886)">
    <path
       style="fill:#bebebe;stroke-width:0.33333334"
       d="M 120.66667,258.98124 C 97.327127,257.27676 75.200447,249.44165 56.066413,236.10616 46.92793,229.73709 36.012307,219.53555 29.202873,211 7.080732,183.27015 -2.6567428,148.50005 1.8510175,113.33333 8.140658,64.265507 42.51201,22.827712 89.736027,7.3799473 102.56718,3.182663 113.18572,1.4098272 127.33333,1.1028287 c 18.81093,-0.4081908 36.20453,2.9254756 53.33334,10.2218903 21.52423,9.16875 40.56288,24.455584 54.24167,43.552624 13.45226,18.78079 21.40222,40.118697 23.63644,63.440827 0.71456,7.45906 0.46441,21.35893 -0.51412,28.5671 -5.23914,38.59346 -26.55644,71.81659 -59.45265,92.65728 -22.73238,14.40162 -50.84406,21.41542 -77.91134,19.43869 z m 16.23682,-31.35125 c 13.30927,-1.62605 26.27201,-6.33583 38.68935,-14.05706 12.67729,-7.88287 19.32872,-14.9954 24.85407,-26.57707 3.43345,-7.19686 5.52788,-14.24221 6.93526,-23.32919 1.07067,-6.91301 1.08695,-19.24376 0.0334,-25.33334 -1.46118,-8.44606 -4.05075,-14.98761 -7.42481,-18.756 -5.2525,-5.86634 -15.37361,-10.00314 -25.4908,-10.41884 -3.88176,-0.15949 -4.08783,-0.13224 -6.97109,0.92191 -1.6341,0.59745 -3.0927,1.31127 -3.24133,1.58627 -0.14863,0.275 -0.87727,2.15 -1.6192,4.16666 -3.13372,8.51792 -9.20996,15.65925 -16.16838,19.00248 -3.31678,1.59358 -5.55147,2.16419 -8.47559,2.16419 -1.15798,0 -2.07459,0.16832 -2.26908,0.41667 -0.17946,0.22916 -1.34191,3.11666 -2.58323,6.41666 -8.18063,21.74797 -16.28487,41.20008 -22.51242,54.0352 -2.1224,4.37432 -4.87738,6.66528 -8.45221,7.02863 -1.30989,0.13314 -2.721907,-0.10196 -6.064167,-1.0097 -5.19781,-1.41169 -7.07541,-2.12219 -10.740796,-4.06445 -3.836704,-2.03304 -7.928814,-5.061 -11.660954,-8.62855 -3.15752,-3.01826 -12.40822,-13.61429 -12.40822,-14.21275 0,-0.46905 1.815527,-0.38993 9.00174,0.3923 7.586217,0.82577 16.72779,0.98446 18.99826,0.32981 2.876577,-0.82942 3.195074,-1.58211 3.682974,-8.70382 0.18212,-2.65833 0.552953,-6.96657 0.824076,-9.57385 0.587494,-5.64972 0.631787,-10.40328 0.119514,-12.82641 -0.381414,-1.80415 -0.9524,-3.08215 -4.512384,-10.09974 -3.168543,-6.24597 -3.6163,-7.85527 -3.60299,-12.94968 l 0.0112,-4.28302 -0.726953,0.84514 c -0.399823,0.46482 -1.06334,1.86718 -1.474483,3.11635 -2.266527,6.88638 -5.964754,10.57421 -11.80608,11.77288 -2.356277,0.48352 -4.86604,0.25345 -7.803734,-0.71536 -2.33955,-0.77154 -2.800253,-0.58819 -2.630813,1.04702 0.06629,0.6397 1.170723,1.655 4.753017,4.36943 2.566666,1.94485 4.666666,3.74191 4.666666,3.99348 0,0.33962 -1.458976,0.65478 -5.666666,1.22405 -8.551614,1.15699 -12.211627,0.72314 -16.166667,-1.91637 -0.825,-0.55059 -1.6125,-1.00171 -1.75,-1.00249 -0.508023,-0.003 -0.22806,2.06814 0.46257,3.42188 0.909043,1.78187 5.219123,7.46531 6.55188,8.63956 0.719933,0.63431 0.964663,1.09699 0.837483,1.58333 -0.09884,0.37792 -0.300086,0.68713 -0.44723,0.68713 -0.50667,0 -8.826413,-1.70012 -11.654713,-2.38161 -5.60934,-1.3516 -10.470732,-4.53866 -12.362497,-8.10467 -0.441664,-0.83254 -0.897416,-1.51372 -1.012782,-1.51372 -1.003421,0 -2.563456,5.13211 -3.779072,12.43216 -0.604365,3.62935 -1.181897,6.68187 -1.283404,6.78338 -0.101507,0.1015 -0.333019,0.0928 -0.514473,-0.0193 -0.596647,-0.36875 -7.281494,-9.9911 -8.170243,-11.76047 -3.351207,-6.67178 -3.922306,-14.64265 -1.66418,-23.22712 1.699023,-6.45899 3.583725,-10.00058 7.312015,-13.74017 4.167343,-4.17998 8.504376,-6.47037 15.974636,-8.43621 11.574773,-3.04595 18.05858,-5.88545 24.469047,-10.71588 3.176396,-2.393487 5.25732,-4.631317 7.42328,-7.983013 C 71.344953,84.645097 72.028433,82.8876 73.49409,77.119423 77.066263,63.060923 85.015867,58.183377 99.5,61.16328 c 2.2,0.452617 4.25001,0.826043 4.55559,0.82983 0.31934,0.004 1.32597,-1.092537 2.36738,-2.578737 9.45594,-13.494646 22.5275,-23.852813 38.14594,-30.227627 13.93619,-5.688187 29.90178,-7.133183 43.87125,-3.97065 1.25042,0.283081 2.35209,0.436094 2.44816,0.340028 0.47377,-0.473771 -10.40924,-5.993277 -16.55499,-8.396144 C 164.08685,13.153805 152.97882,10.494387 141.5,9.299221 136.36257,8.7643157 123.28022,8.7578793 118.33333,9.2878233 90.07288,12.315272 65.462233,23.72396 45.521153,43.041157 26.942411,61.03864 14.741626,84.080907 10.351093,109.46294 c -2.3401253,13.52845 -2.212676,29.87015 0.336947,43.20373 1.642835,8.59142 4.433111,17.73139 7.773514,25.46334 2.443101,5.65499 2.67335,5.99301 3.913323,5.74501 0.830518,-0.1661 1.028816,-0.0667 1.302401,0.65289 C 23.854775,184.99476 24,186.31022 24,187.45114 c 0,1.94241 0.122957,2.27508 1.932423,5.2283 1.062833,1.73464 2.300333,3.71454 2.75,4.39977 0.843137,1.28482 1.65091,1.64571 1.65091,0.73757 0,-1.59932 1.991527,-3.48345 3.682017,-3.48345 2.776473,0 4.540047,3.85972 3.12556,6.84054 -0.47615,1.0034 -2.139977,2.15946 -3.107953,2.15946 -0.683954,0 -0.369977,0.63531 0.7593,1.53638 1.757566,1.40239 38.053173,13.77403 52.665176,17.95133 19.065157,5.45038 33.057437,6.81122 49.446057,4.80895 z M 34.233747,192.12263 C 34.105187,191.99407 34,190.56018 34,188.93619 c 0,-2.86509 -0.02543,-2.96236 -0.857588,-3.27874 -1.254484,-0.47696 -0.923021,-1.41953 0.634871,-1.80537 0.99794,-0.24716 1.336694,-0.21144 1.580407,0.16666 0.170613,0.2647 0.27243,2.20445 0.226257,4.31057 -0.06902,3.14827 -0.17576,3.84689 -0.6002,3.92819 -0.28394,0.0544 -0.62144,-0.006 -0.75,-0.13487 z m 8.68966,-0.44467 c -1.202274,-0.9457 -1.701127,-2.40495 -1.50827,-4.41202 0.134773,-1.40262 0.36242,-1.90196 1.213963,-2.66281 1.826833,-1.63227 4.39985,-1.13656 5.53947,1.06722 1.02169,1.97573 0.414103,4.98359 -1.240833,6.14275 -1.032907,0.72347 -2.997054,0.65719 -4.00433,-0.13514 z m 3.557693,-1.75213 c 0.81125,-1.15822 0.66674,-3.14163 -0.299283,-4.10765 -1.04651,-1.04651 -1.631597,-1.03239 -2.490957,0.0601 -1.408723,1.7909 -0.589213,4.78838 1.30914,4.78838 0.616433,0 1.148663,-0.26622 1.4811,-0.74084 z m -24.301907,-9.32035 c -0.09788,-0.42468 -0.215736,-1.97215 -0.261909,-3.43881 -0.07814,-2.48198 -0.135895,-2.67405 -0.833951,-2.77319 -1.140004,-0.1619 -0.89635,-1.03302 0.445793,-1.5938 1.971433,-0.82372 2.173425,-0.40012 2.064074,4.3286 -0.08087,3.49697 -0.168813,4.04476 -0.664624,4.13981 -0.372725,0.0714 -0.633305,-0.15896 -0.749383,-0.66261 z m 10.616724,0.49011 c -0.387245,-0.0715 -1.127663,-0.57205 -1.645372,-1.11242 -0.757972,-0.79115 -0.967411,-1.35583 -1.075417,-2.8995 -0.112172,-1.6032 -0.0047,-2.10798 0.656583,-3.08367 1.493162,-2.20311 4.372176,-2.20095 5.870809,0.004 0.662217,0.9745 0.767963,1.4745 0.65455,3.09495 -0.112267,1.60412 -0.301453,2.09326 -1.112833,2.87719 -1.0077,0.97362 -2.12065,1.34558 -3.34832,1.11905 z M 35.008313,178.75 c 0.566174,-0.71746 0.68899,-1.22448 0.56516,-2.33315 C 35.37664,174.65453 34.854307,174 33.644753,174 c -1.876959,0 -2.686112,3.00999 -1.287226,4.78838 0.886001,1.12637 1.741426,1.11398 2.650786,-0.0384 z m 7.484644,1.14296 c -1.482197,-1.4822 -1.786674,-3.1431 -0.950297,-5.18381 1.57258,-3.837 6.256543,-3.19046 6.95783,0.96042 C 48.95921,178.38472 47.131083,181 44.774423,181 c -0.885706,0 -1.446576,-0.27215 -2.281466,-1.10704 z M 46.089033,178.75 c 0.835684,-0.92731 1.006177,-2.21021 0.46565,-3.50387 -0.87188,-2.08671 -2.905826,-1.94204 -3.511,0.24972 -0.541673,1.96178 0.333084,3.83748 1.78965,3.83748 0.401504,0 0.96657,-0.2625 1.2557,-0.58333 z m 8.01796,1.71224 c -2.753653,-1.35799 -2.83065,-6.55378 -0.117903,-7.9566 0.53779,-0.2781 1.2927,-0.50564 1.677577,-0.50564 1.129293,0 2.6163,0.93571 3.161023,1.98909 0.655127,1.26687 0.646953,3.77075 -0.0165,5.05372 -0.48162,0.93135 -2.19194,1.96781 -3.217153,1.9496 -0.235057,-0.004 -0.904227,-0.24275 -1.487047,-0.53017 z M 57,178.66667 c 1.424253,-1.42426 0.52679,-5.01045 -1.25,-4.9949 -1.891917,0.0166 -2.769823,3.03226 -1.392473,4.78328 0.824583,1.04829 1.73305,1.12104 2.642473,0.21162 z m -14.19323,-9.62849 c -1.3488,-0.8225 -1.93094,-2.2953 -1.73075,-4.37875 0.17707,-1.84279 0.874277,-2.85189 2.424067,-3.50846 1.418966,-0.60114 2.675886,-0.25154 3.83275,1.06606 0.827286,0.94222 1.000496,1.4289 1.000496,2.81112 0,3.78124 -2.695003,5.73671 -5.526563,4.01003 z m 3.340997,-1.77902 c 1.12964,-1.61278 0.133476,-4.92583 -1.4811,-4.92583 -0.857434,0 -2,1.55856 -2,2.72818 0,0.53438 0.228853,1.41415 0.50856,1.95504 0.643436,1.24427 2.182943,1.36992 2.97254,0.24261 z m 7.921283,1.91754 c -1.487447,-0.66384 -2.54762,-2.99722 -2.226193,-4.89973 0.32158,-1.90342 1.647786,-3.27218 3.397836,-3.50686 1.27689,-0.17123 1.51394,-0.0821 2.557044,0.96096 3.376993,3.37699 0.413656,9.29434 -3.728687,7.44563 z m 2.795953,-1.87836 c 1.37154,-1.51553 0.46343,-4.96501 -1.307086,-4.96501 -1.220557,0 -1.89125,0.964 -1.89125,2.71833 0,2.57363 1.77443,3.82008 3.198336,2.24668 z m 8.21833,-1.20421 c -0.27774,-0.0998 -0.416666,-0.90452 -0.416666,-2.41357 0,-3.24998 -0.282697,-4.34448 -1.213547,-4.69838 -0.43255,-0.16446 -0.786453,-0.43436 -0.786453,-0.59978 0,-0.93835 2.863096,-1.80201 3.361966,-1.01415 0.16197,0.2558 0.29679,2.20922 0.299597,4.34094 0.0051,3.88887 -0.238373,4.74653 -1.244897,4.38494 z m 9.079907,-10.86422 c -1.969327,-1.96933 -1.777207,-5.9808 0.353297,-7.37676 2.155626,-1.41242 5.219766,-0.0185 5.818246,2.64685 0.999964,4.45334 -3.21655,7.6849 -6.171543,4.72991 z m 3.984527,-1.30408 c 0.827523,-1.18146 0.673413,-3.46829 -0.299284,-4.44098 -1.010416,-1.01042 -1.249076,-1.01507 -2.37535,-0.0463 -1.74165,1.4981 -0.898123,5.22811 1.182317,5.22811 0.628027,0 1.15753,-0.26287 1.492317,-0.74084 z m -43.281,47.48573 c 1.238013,-0.82664 1.47199,-3.22433 0.442373,-4.53327 C 33.88124,195.06301 32,196.21661 32,198.9075 c 0,2.04612 1.539147,3.39054 2.866767,2.50406 z M 189.02484,38.013653 c 5.03055,-0.813363 10.8032,-1.340303 14.72516,-1.344136 2.88356,-0.0027 3.29644,-0.156407 2.51667,-0.936184 -0.58324,-0.583233 -9.69965,-0.516313 -13.49383,0.09905 -3.26726,0.52991 -8.59712,2.174666 -9.2259,2.847043 -0.29509,0.31555 -0.18804,0.361533 0.4779,0.20527 0.472,-0.110757 2.722,-0.502727 5,-0.871047 z"
       id="path3777"
       inkscape:connector-curvature="0" />
    <path
       style="fill:#bebebe;stroke-width:0.33333334"
       d="M 120.66667,258.98124 C 97.327127,257.27676 75.200447,249.44165 56.066413,236.10616 46.92793,229.73709 36.012307,219.53555 29.202873,211 7.080732,183.27015 -2.6567428,148.50005 1.8510175,113.33333 8.140658,64.265507 42.51201,22.827712 89.736027,7.3799473 102.56718,3.182663 113.18572,1.4098272 127.33333,1.1028287 c 18.81093,-0.4081908 36.20453,2.9254756 53.33334,10.2218903 21.52423,9.16875 40.56288,24.455584 54.24167,43.552624 13.45226,18.78079 21.40222,40.118697 23.63644,63.440827 0.71456,7.45906 0.46441,21.35893 -0.51412,28.5671 -5.23914,38.59346 -26.55644,71.81659 -59.45265,92.65728 -22.73238,14.40162 -50.84406,21.41542 -77.91134,19.43869 z M 137,243.98748 c 14.79269,-1.32583 32.66422,-6.68097 44.08781,-13.21075 14.30607,-8.17741 23.77216,-18.10725 30.45156,-31.9434 4.86503,-10.07775 7.33523,-20.94782 7.69475,-33.86057 0.27736,-9.96208 -0.63295,-17.3056 -3.11629,-25.13943 -1.49437,-4.71406 -5.19506,-12.17103 -7.94035,-16 -2.20757,-3.07898 -7.46546,-8.98979 -7.74664,-8.70861 -0.0865,0.0865 0.43182,1.03129 1.15178,2.09959 5.00965,7.43347 8.54269,16.20356 10.4509,25.94236 0.69299,3.53673 0.78235,4.92654 0.77156,12 -0.0131,8.58797 -0.48572,12.656 -2.30348,19.82701 -5.26169,20.75726 -18.74683,36.94686 -39.37758,47.27481 -8.0658,4.03782 -17.14125,7.20969 -27.29128,9.53831 -8.43764,1.93575 -12.07259,2.34792 -20.66607,2.34331 -8.20007,-0.004 -13.1946,-0.47273 -21.5,-2.01604 -17.85842,-3.31844 -40.04869,-11.27442 -58.547377,-20.99125 -2.592723,-1.36189 -4.82847,-2.47615 -4.96833,-2.47615 -1.65359,0 12.439607,10.07711 20.849037,14.90776 26.058707,14.96898 54.80476,22.49199 78,20.41305 z m -0.0965,-16.35749 c 13.30927,-1.62605 26.27201,-6.33583 38.68935,-14.05706 12.67729,-7.88287 19.32872,-14.9954 24.85407,-26.57707 3.43345,-7.19686 5.52788,-14.24221 6.93526,-23.32919 1.07067,-6.91301 1.08695,-19.24376 0.0334,-25.33334 -1.46118,-8.44606 -4.05075,-14.98761 -7.42481,-18.756 -5.2525,-5.86634 -15.37361,-10.00314 -25.4908,-10.41884 -3.88176,-0.15949 -4.08783,-0.13224 -6.97109,0.92191 -1.6341,0.59745 -3.0927,1.31127 -3.24133,1.58627 -0.14863,0.275 -0.87727,2.15 -1.6192,4.16666 -3.13372,8.51792 -9.20996,15.65925 -16.16838,19.00248 -3.31678,1.59358 -5.55147,2.16419 -8.47559,2.16419 -1.15798,0 -2.07459,0.16832 -2.26908,0.41667 -0.17946,0.22916 -1.34191,3.11666 -2.58323,6.41666 -8.18063,21.74797 -16.28487,41.20008 -22.51242,54.0352 -2.1224,4.37432 -4.87738,6.66528 -8.45221,7.02863 -1.30989,0.13314 -2.721907,-0.10196 -6.064167,-1.0097 -5.19781,-1.41169 -7.07541,-2.12219 -10.740796,-4.06445 -3.836704,-2.03304 -7.928814,-5.061 -11.660954,-8.62855 -3.15752,-3.01826 -12.40822,-13.61429 -12.40822,-14.21275 0,-0.46905 1.815527,-0.38993 9.00174,0.3923 7.586217,0.82577 16.72779,0.98446 18.99826,0.32981 2.876577,-0.82942 3.195074,-1.58211 3.682974,-8.70382 0.18212,-2.65833 0.552953,-6.96657 0.824076,-9.57385 0.587494,-5.64972 0.631787,-10.40328 0.119514,-12.82641 -0.381414,-1.80415 -0.9524,-3.08215 -4.512384,-10.09974 -3.168543,-6.24597 -3.6163,-7.85527 -3.60299,-12.94968 l 0.0112,-4.28302 -0.726953,0.84514 c -0.399823,0.46482 -1.06334,1.86718 -1.474483,3.11635 -2.266527,6.88638 -5.964754,10.57421 -11.80608,11.77288 -2.356277,0.48352 -4.86604,0.25345 -7.803734,-0.71536 -2.33955,-0.77154 -2.800253,-0.58819 -2.630813,1.04702 0.06629,0.6397 1.170723,1.655 4.753017,4.36943 2.566666,1.94485 4.666666,3.74191 4.666666,3.99348 0,0.33962 -1.458976,0.65478 -5.666666,1.22405 -8.551614,1.15699 -12.211627,0.72314 -16.166667,-1.91637 -0.825,-0.55059 -1.6125,-1.00171 -1.75,-1.00249 -0.508023,-0.003 -0.22806,2.06814 0.46257,3.42188 0.909043,1.78187 5.219123,7.46531 6.55188,8.63956 0.719933,0.63431 0.964663,1.09699 0.837483,1.58333 -0.09884,0.37792 -0.300086,0.68713 -0.44723,0.68713 -0.50667,0 -8.826413,-1.70012 -11.654713,-2.38161 -5.60934,-1.3516 -10.470732,-4.53866 -12.362497,-8.10467 -0.441664,-0.83254 -0.897416,-1.51372 -1.012782,-1.51372 -1.003421,0 -2.563456,5.13211 -3.779072,12.43216 -0.604365,3.62935 -1.181897,6.68187 -1.283404,6.78338 -0.101507,0.1015 -0.333019,0.0928 -0.514473,-0.0193 -0.596647,-0.36875 -7.281494,-9.9911 -8.170243,-11.76047 -3.351207,-6.67178 -3.922306,-14.64265 -1.66418,-23.22712 1.699023,-6.45899 3.583725,-10.00058 7.312015,-13.74017 4.167343,-4.17998 8.504376,-6.47037 15.974636,-8.43621 11.574773,-3.04595 18.05858,-5.88545 24.469047,-10.71588 3.176396,-2.393487 5.25732,-4.631317 7.42328,-7.983013 C 71.344953,84.645097 72.028433,82.8876 73.49409,77.119423 77.066263,63.060923 85.015867,58.183377 99.5,61.16328 c 2.2,0.452617 4.25001,0.826043 4.55559,0.82983 0.31934,0.004 1.32597,-1.092537 2.36738,-2.578737 9.45594,-13.494646 22.5275,-23.852813 38.14594,-30.227627 13.93619,-5.688187 29.90178,-7.133183 43.87125,-3.97065 1.25042,0.283081 2.35209,0.436094 2.44816,0.340028 0.47377,-0.473771 -10.40924,-5.993277 -16.55499,-8.396144 C 164.08685,13.153805 152.97882,10.494387 141.5,9.299221 136.36257,8.7643157 123.28022,8.7578793 118.33333,9.2878233 90.07288,12.315272 65.462233,23.72396 45.521153,43.041157 26.942411,61.03864 14.741626,84.080907 10.351093,109.46294 9.0237507,117.13641 8.5825977,123.52457 8.7602007,132.5 c 0.2094333,10.58403 1.0727923,17.38858 3.4468973,27.16667 1.765991,7.27348 6.918226,21.17551 8.796995,23.7365 0.364416,0.49674 0.662574,1.06423 0.662574,1.26108 0,0.58178 1.65254,3.66908 1.963948,3.66908 0.157329,0 0.37413,0.4125 0.481782,0.91667 0.217614,1.01915 4.356106,7.73974 5.494308,8.92233 0.399645,0.41523 0.726628,0.89976 0.726628,1.07672 0,0.50215 2.307267,3.42953 3.98347,5.05408 1.44336,1.39888 2.023147,1.64402 12.01653,5.08067 28.82349,9.91217 44.18386,14.67785 53.457434,16.58562 12.991693,2.67267 24.583443,3.19133 37.112723,1.66057 z M 189.02484,38.013653 c 5.03055,-0.813363 10.8032,-1.340303 14.72516,-1.344136 2.88356,-0.0027 3.29644,-0.156407 2.51667,-0.936184 -0.58324,-0.583233 -9.69965,-0.516313 -13.49383,0.09905 -3.26726,0.52991 -8.59712,2.174666 -9.2259,2.847043 -0.29509,0.31555 -0.18804,0.361533 0.4779,0.20527 0.472,-0.110757 2.722,-0.502727 5,-0.871047 z"
       id="path3775"
       inkscape:connector-curvature="0" />
    <path
       style="fill:#bebebe;stroke-width:0.33333334"
       d="m 120.83333,258.8022 c -9.61111,-0.91468 -15.48644,-1.8615 -22.513593,-3.62812 C 49.14412,242.81137 11.377249,202.05123 2.87681,152.16667 c -1.4407105,-8.45477 -1.7006305,-11.81719 -1.7006305,-22 0,-9.83992 0.2582571,-13.4266 1.5240948,-21.16667 C 8.9202133,70.967667 32.272099,37.43035 66,18.090727 80.521147,9.764283 96.352143,4.49302 114,2.1081217 c 5.66039,-0.7649352 25.13894,-0.8740853 30.5,-0.1709101 22.47379,2.9477401 41.17952,9.9688904 58.66667,22.0203914 9.37208,6.458896 20.297,16.61636 27.29301,25.37573 25.77639,32.2734 34.58503,74.080387 24.05467,114.166667 -4.3423,16.53 -12.79208,33.29871 -23.59937,46.83333 -21.55265,26.99168 -51.81842,43.77303 -86.58165,48.00662 -3.05782,0.3724 -20.78101,0.72101 -23.5,0.46225 z m 17,-14.82588 c 10.3853,-0.90905 24.14156,-4.4398 34.5,-8.85494 15.64424,-6.66814 28.03449,-16.97271 35.89212,-29.85031 5.02135,-8.2293 8.46588,-18.08585 10.28752,-29.43774 0.71342,-4.44583 1.03159,-17.9799 0.52574,-22.36345 -1.48693,-12.88524 -5.79368,-23.62361 -13.08367,-32.6226 -2.2828,-2.81796 -6.38721,-6.84857 -5.44518,-5.34728 0.34511,0.55 1.40496,2.23391 2.3552,3.74202 4.4687,7.09217 7.61008,15.47211 9.34345,24.92465 0.92652,5.05254 0.84102,17.4042 -0.16152,23.33333 -2.86101,16.9204 -9.44176,29.76928 -20.8984,40.804 -11.50184,11.07826 -27.24472,18.89809 -47.31585,23.5028 -8.31729,1.90814 -12.05709,2.33037 -20.66607,2.33323 -8.12783,0.003 -12.95824,-0.4471 -21.3569,-1.98868 C 83.76402,228.83905 62.708633,221.29868 43,211.09037 c -5.249827,-2.7192 -5.446933,-2.79246 -4.333333,-1.61054 1.529336,1.62318 6.78967,5.57271 12.02814,9.03091 21.18508,13.98543 47.04021,23.54535 68.805193,25.44068 4.80807,0.4187 13.69659,0.43077 18.33333,0.0249 z m -8.20641,-15.31436 c 12.64194,-0.76887 22.90569,-3.26289 33.87562,-8.23156 7.95837,-3.60463 17.27409,-9.35795 23.19215,-14.32331 16.64699,-13.96711 25.21343,-42.60011 20.77524,-69.44042 -0.71156,-4.30322 -2.89415,-10.76875 -4.63427,-13.72821 -4.13515,-7.03272 -12.35748,-11.77542 -23.81107,-13.73439 -4.8322,-0.82648 -7.52271,-0.71273 -11.36311,0.48039 -1.80182,0.55978 -3.41011,1.19728 -3.57397,1.41666 -0.16386,0.21939 -0.71885,1.67388 -1.23332,3.23221 -2.94164,8.91033 -9.14042,16.58323 -16.36422,20.2558 -2.14496,1.09049 -5.10419,1.83285 -8.15664,2.04618 l -2.83333,0.19802 -3.24829,8.5 c -7.77583,20.34748 -12.23063,31.13244 -19.91748,48.21977 -3.51059,7.80378 -5.43597,10.01965 -9.43089,10.8538 -1.7777,0.37118 -2.22485,0.32744 -5.666667,-0.55436 C 88.1023,201.51229 82.527747,198.5756 75.446397,192.37338 72.637687,189.91336 62,177.98759 62,177.2988 c 0,-0.42305 0.704687,-0.38686 8.176833,0.41987 7.77585,0.83953 16.49287,0.99508 19.038477,0.33974 3.145703,-0.80984 3.702903,-1.98243 4.143103,-8.71891 0.173934,-2.66172 0.539447,-6.89552 0.81225,-9.40844 0.565744,-5.21133 0.634367,-11.39202 0.150974,-13.59773 -0.180804,-0.825 -1.83101,-4.5 -3.667127,-8.16666 -3.963477,-7.91494 -4.83961,-10.79342 -4.562713,-14.99045 0.09711,-1.47192 0.281746,-2.93746 0.4103,-3.25674 0.15859,-0.39388 0.04517,-0.65289 -0.352764,-0.80559 -0.74802,-0.28704 -1.571113,0.69995 -2.3419,2.80823 -2.517726,6.88656 -4.432973,9.53284 -8.25454,11.40523 -3.816603,1.86996 -6.77335,2.02786 -11.349236,0.60608 -2.231974,-0.6935 -2.30906,-0.69611 -2.75,-0.0931 -0.719627,0.98415 -0.540877,2.14494 0.46301,3.00676 0.504166,0.43282 2.55737,2.03179 4.562676,3.55326 2.005307,1.52147 3.696907,2.92861 3.759114,3.12698 0.17305,0.55184 -11.769677,1.94042 -14.160627,1.64646 -2.603083,-0.32003 -5.012983,-1.2072 -7.171937,-2.64023 -0.994526,-0.66013 -1.905203,-1.20024 -2.02373,-1.20024 -0.461896,0 -0.18371,2.92139 0.384277,4.03546 0.947623,1.85871 5.718337,8.21123 6.600857,8.78948 0.78116,0.51183 1.051023,1.31352 0.54701,1.62502 -0.310684,0.19201 -7.120934,-1.14355 -11.515287,-2.25827 -6.012053,-1.52508 -10.079003,-4.27116 -12.03123,-8.12369 -0.483461,-0.95406 -1.028698,-1.73466 -1.211638,-1.73466 -0.527726,0 -1.536277,1.88718 -2.333384,4.36619 -0.403857,1.256 -1.210514,5.08953 -1.792572,8.51896 -0.582057,3.42942 -1.201965,6.27601 -1.377574,6.32574 -0.313032,0.0887 -1.903899,-2.04941 -5.988286,-8.04798 -3.471323,-5.09819 -4.922109,-9.92301 -4.910185,-16.32958 0.01186,-6.37192 1.874135,-13.83944 4.619503,-18.52369 2.477565,-4.22732 7.964944,-8.94821 12.978063,-11.16525 1.079541,-0.47742 4.45471,-1.52393 7.500376,-2.32557 13.106617,-3.44975 21.02703,-7.416883 27.167797,-13.60767 4.59681,-4.63425 6.54722,-8.294163 8.28518,-15.54699 2.254123,-9.406893 7.07424,-14.982327 14.136663,-16.351897 2.738367,-0.531033 8.599747,-0.213763 12.541377,0.67885 3.76867,0.853447 4.2521,0.845974 4.81608,-0.07445 1.5063,-2.45834 6.50289,-8.684673 9.428,-11.748393 10.83691,-11.350437 25.0418,-19.760103 39.75535,-23.536208 6.00109,-1.540129 9.58628,-2.023068 16.37666,-2.206 7.11803,-0.19176 10.97607,0.105334 16.47413,1.268612 1.74167,0.368501 3.61667,0.756644 4.16667,0.862541 l 1,0.192538 -0.66667,-0.67786 c -0.90194,-0.917087 -6.64887,-4.047471 -11.24322,-6.124248 -12.81486,-5.792674 -24.8264,-9.021576 -38.92344,-10.463271 -6.82486,-0.697973 -20.55884,-0.5294937 -27,0.331218 C 94.654967,12.156359 75.913003,19.465716 59.75268,30.898689 39.715977,45.074093 24.043694,65.53446 15.797966,88.282133 5.511185,116.66051 5.8971013,146.85819 16.904062,174.83333 c 3.215297,8.17196 9.209566,19.19313 13.565326,24.94146 1.135757,1.49886 2.402334,3.28015 2.814615,3.95841 0.41228,0.67826 1.22954,1.52172 1.816134,1.87435 1.0788,0.64853 22.972523,8.2396 37.06653,12.85184 21.434106,7.01428 32.184213,9.45826 44.780813,10.1807 6.6749,0.38282 6.74254,0.38294 12.67944,0.0219 z M 102.34481,194.4402 c 0.52122,-0.30789 1.31499,-1.24539 1.76394,-2.08334 1.90022,-3.54664 15.16117,-37.86472 14.77907,-38.24682 -0.0609,-0.0609 -0.98346,1.80191 -2.05012,4.13961 -6.32123,13.8537 -11.9778,24.08556 -15.31111,27.69546 -2.301463,2.49243 -4.53967,2.73201 -14.193257,1.51929 L 85.5,187.23409 l 0.66406,0.7484 c 1.36252,1.53558 7.79583,5.42005 10.826323,6.53699 1.68707,0.62181 4.231357,0.58413 5.354427,-0.0793 z M 139.873,127.16178 c 3.85676,-0.65776 7.23744,-1.67938 8.78025,-2.65331 2.8874,-1.82274 5.4831,-5.84401 7.10586,-11.00847 1.99047,-6.33466 2.0185,-10.92506 0.10167,-16.653407 -1.11422,-3.329796 -2.90067,-7.29274 -3.43665,-7.623643 -0.14161,-0.08742 -0.26197,2.71415 -0.26748,6.225717 -0.009,5.555453 -0.1116,6.795943 -0.79219,9.551333 -2.39008,9.67624 -6.18774,15.14018 -15.22013,21.89815 l -0.97766,0.73148 0.873,0.0185 c 0.48015,0.0102 2.20515,-0.20868 3.83333,-0.48636 z M 231,63.4 c 0,-0.695933 -0.96932,-1.066667 -2.78889,-1.066667 -2.3202,0 -2.26147,0.255514 0.19546,0.85044 C 230.56326,63.706003 231,63.742413 231,63.4 Z m -72.76829,-5.99396 c 9.37147,-4.576723 21.18774,-8.200267 33.86588,-10.38521 6.2708,-1.080707 11.03577,-1.424713 18.03493,-1.302033 3.59402,0.063 6.53448,0.02663 6.53436,-0.08078 -1.2e-4,-0.10742 -1.02337,-1.18309 -2.2739,-2.390373 -1.63778,-1.58114 -2.59336,-2.245414 -3.41667,-2.375097 -7.02343,-1.106317 -17.71354,-0.04516 -26.54911,2.635413 -6.93754,2.104737 -16.37154,6.449074 -23.09106,10.633374 -3.76174,2.342473 -8.33256,5.52533 -7.93479,5.52533 0.11078,0 2.28444,-1.017284 4.83036,-2.260627 z M 127.885,44.890603 c 8.96716,-5.61976 18.68224,-9.969416 26.87656,-12.033232 7.20547,-1.814766 13.86432,-2.792198 25.40511,-3.729138 l 3,-0.243556 -1.83334,-0.293273 C 180.325,28.430104 174.325,28.353415 168,28.420983 c -11.09853,0.118564 -11.61055,0.152693 -14.66667,0.977619 -1.74166,0.470121 -4.41822,1.34951 -5.9479,1.954198 -7.00535,2.769233 -17.54256,9.67309 -23.48626,15.387923 -1.90511,1.831754 -1.8436,1.803204 3.98583,-1.85012 z m 57.63061,-5.87511 c 4.59779,-1.003206 10.44879,-1.685646 16.40106,-1.91296 2.97916,-0.11377 5.41666,-0.322496 5.41666,-0.463836 0,-0.141337 -0.39523,-0.567864 -0.87828,-0.947837 C 205.65381,35.060603 205.13131,35 200.49871,35 c -5.59194,0 -9.2063,0.498413 -13.55569,1.869303 -2.6537,0.836424 -5.94302,2.29556 -5.94302,2.636314 0,0.320716 1.59077,0.148056 4.51561,-0.490124 z"
       id="path3773"
       inkscape:connector-curvature="0" />
    <path
       style="fill:#bebebe;stroke-width:0.33333334"
       d="m 120.83333,258.8022 c -9.61111,-0.91468 -15.48644,-1.8615 -22.513593,-3.62812 C 49.14412,242.81137 11.377249,202.05123 2.87681,152.16667 c -1.4407105,-8.45477 -1.7006305,-11.81719 -1.7006305,-22 0,-9.83992 0.2582571,-13.4266 1.5240948,-21.16667 C 8.9202133,70.967667 32.272099,37.43035 66,18.090727 80.521147,9.764283 96.352143,4.49302 114,2.1081217 c 5.66039,-0.7649352 25.13894,-0.8740853 30.5,-0.1709101 22.47379,2.9477401 41.17952,9.9688904 58.66667,22.0203914 9.37208,6.458896 20.297,16.61636 27.29301,25.37573 25.77639,32.2734 34.58503,74.080387 24.05467,114.166667 -4.3423,16.53 -12.79208,33.29871 -23.59937,46.83333 -21.55265,26.99168 -51.81842,43.77303 -86.58165,48.00662 -3.05782,0.3724 -20.78101,0.72101 -23.5,0.46225 z m 15.83334,-14.13797 c 7.41065,-0.63808 14.49337,-1.99623 22.72814,-4.35822 31.00172,-8.89229 50.75648,-27.74386 57.77679,-55.13527 1.757,-6.85531 2.52642,-12.68044 2.73284,-20.68969 0.19744,-7.66087 -0.0975,-11.42498 -1.40966,-17.98817 -2.55004,-12.75521 -9.38082,-24.76315 -18.79187,-33.03452 C 198.1645,112.10626 196.76292,111 196.58828,111 c -0.17465,0 0.45435,0.9375 1.39778,2.08333 7.03491,8.54425 11.81678,19.34715 13.9065,31.41667 0.72144,4.16677 0.80745,16.16487 0.14816,20.66667 -2.55102,17.41895 -8.93656,30.75977 -20.02817,41.84333 -11.07891,11.07088 -26.15005,18.97217 -45.17922,23.68594 -13.53615,3.35309 -22.90043,3.98676 -36.16666,2.44736 -19.48855,-2.26144 -41.5037,-9.42109 -64.653327,-21.02622 -4.850993,-2.43185 -8.88825,-4.35328 -8.97168,-4.26985 -0.35341,0.3534 2.72046,3.48724 5.479117,5.586 14.563647,11.07991 34.561187,21.15337 52.035823,26.21228 15.105757,4.37311 29.577287,6.09785 42.110067,5.01872 z m -7.03975,-16.00227 c 12.64194,-0.76887 22.90569,-3.26289 33.87562,-8.23156 7.95837,-3.60463 17.27409,-9.35795 23.19215,-14.32331 16.64699,-13.96711 25.21343,-42.60011 20.77524,-69.44042 -0.71156,-4.30322 -2.89415,-10.76875 -4.63427,-13.72821 -4.13515,-7.03272 -12.35748,-11.77542 -23.81107,-13.73439 -4.8322,-0.82648 -7.52271,-0.71273 -11.36311,0.48039 -1.80182,0.55978 -3.41011,1.19728 -3.57397,1.41666 -0.16386,0.21939 -0.71885,1.67388 -1.23332,3.23221 -2.94164,8.91033 -9.14042,16.58323 -16.36422,20.2558 -2.14496,1.09049 -5.10419,1.83285 -8.15664,2.04618 l -2.83333,0.19802 -3.24829,8.5 c -7.77583,20.34748 -12.23063,31.13244 -19.91748,48.21977 -3.51059,7.80378 -5.43597,10.01965 -9.43089,10.8538 -1.7777,0.37118 -2.22485,0.32744 -5.666667,-0.55436 C 88.1023,201.51229 82.527747,198.5756 75.446397,192.37338 72.637687,189.91336 62,177.98759 62,177.2988 c 0,-0.42305 0.704687,-0.38686 8.176833,0.41987 7.77585,0.83953 16.49287,0.99508 19.038477,0.33974 3.145703,-0.80984 3.702903,-1.98243 4.143103,-8.71891 0.173934,-2.66172 0.539447,-6.89552 0.81225,-9.40844 0.565744,-5.21133 0.634367,-11.39202 0.150974,-13.59773 -0.180804,-0.825 -1.83101,-4.5 -3.667127,-8.16666 -3.963477,-7.91494 -4.83961,-10.79342 -4.562713,-14.99045 0.09711,-1.47192 0.281746,-2.93746 0.4103,-3.25674 0.15859,-0.39388 0.04517,-0.65289 -0.352764,-0.80559 -0.74802,-0.28704 -1.571113,0.69995 -2.3419,2.80823 -2.517726,6.88656 -4.432973,9.53284 -8.25454,11.40523 -3.816603,1.86996 -6.77335,2.02786 -11.349236,0.60608 -2.231974,-0.6935 -2.30906,-0.69611 -2.75,-0.0931 -0.719627,0.98415 -0.540877,2.14494 0.46301,3.00676 0.504166,0.43282 2.55737,2.03179 4.562676,3.55326 2.005307,1.52147 3.696907,2.92861 3.759114,3.12698 0.17305,0.55184 -11.769677,1.94042 -14.160627,1.64646 -2.603083,-0.32003 -5.012983,-1.2072 -7.171937,-2.64023 -0.994526,-0.66013 -1.905203,-1.20024 -2.02373,-1.20024 -0.461896,0 -0.18371,2.92139 0.384277,4.03546 0.947623,1.85871 5.718337,8.21123 6.600857,8.78948 0.78116,0.51183 1.051023,1.31352 0.54701,1.62502 -0.310684,0.19201 -7.120934,-1.14355 -11.515287,-2.25827 -6.012053,-1.52508 -10.079003,-4.27116 -12.03123,-8.12369 -0.483461,-0.95406 -1.028698,-1.73466 -1.211638,-1.73466 -0.527726,0 -1.536277,1.88718 -2.333384,4.36619 -0.403857,1.256 -1.210514,5.08953 -1.792572,8.51896 -0.582057,3.42942 -1.201965,6.27601 -1.377574,6.32574 -0.313032,0.0887 -1.903899,-2.04941 -5.988286,-8.04798 -3.471323,-5.09819 -4.922109,-9.92301 -4.910185,-16.32958 0.01186,-6.37192 1.874135,-13.83944 4.619503,-18.52369 2.477565,-4.22732 7.964944,-8.94821 12.978063,-11.16525 1.079541,-0.47742 4.45471,-1.52393 7.500376,-2.32557 13.106617,-3.44975 21.02703,-7.416883 27.167797,-13.60767 4.59681,-4.63425 6.54722,-8.294163 8.28518,-15.54699 2.254123,-9.406893 7.07424,-14.982327 14.136663,-16.351897 2.738367,-0.531033 8.599747,-0.213763 12.541377,0.67885 3.76867,0.853447 4.2521,0.845974 4.81608,-0.07445 1.5063,-2.45834 6.50289,-8.684673 9.428,-11.748393 10.83691,-11.350437 25.0418,-19.760103 39.75535,-23.536208 6.00109,-1.540129 9.58628,-2.023068 16.37666,-2.206 7.11803,-0.19176 10.97607,0.105334 16.47413,1.268612 1.74167,0.368501 3.61667,0.756644 4.16667,0.862541 l 1,0.192538 -0.66667,-0.67786 c -0.90194,-0.917087 -6.64887,-4.047471 -11.24322,-6.124248 -12.81486,-5.792674 -24.8264,-9.021576 -38.92344,-10.463271 -6.82486,-0.697973 -20.55884,-0.5294937 -27,0.331218 C 94.654967,12.156359 75.913003,19.465716 59.75268,30.898689 42.26466,43.270973 27.948813,60.587 19.176319,79.978663 3.904778,113.73652 4.871747,152.78109 21.789185,185.48176 c 3.350064,6.47552 5.278419,9.62715 9.432295,15.41577 2.553157,3.55794 3.421933,4.52238 4.550413,5.05144 1.558004,0.73044 24.571327,8.64105 36.394774,12.51036 21.432943,7.01407 32.184103,9.45831 44.780813,10.18076 6.6749,0.38282 6.74254,0.38294 12.67944,0.0219 z m -26.6999,-33.94333 c 0.60439,-0.43036 1.44794,-1.61434 2.03416,-2.85507 3.27149,-6.92413 20.25368,-51.71897 19.95121,-52.62638 -0.11974,-0.35923 -1.35579,2.31277 -6.59789,14.26282 -8.05623,18.36522 -14.914,30.74232 -18.418293,33.24187 -0.985514,0.70295 -1.378274,0.75441 -5.396207,0.70699 -2.383333,-0.0281 -5.458333,-0.2775 -6.833333,-0.55415 -1.65539,-0.33308 -2.612614,-0.3912 -2.833334,-0.17206 -0.873303,0.86708 6.76996,6.23448 11.563627,8.12044 2.59124,1.01946 4.98772,0.97379 6.53006,-0.12446 z m 39.23965,-67.42261 c 4.73325,-0.95377 6.77595,-1.96006 9.16668,-4.51575 3.17798,-3.39728 5.18735,-8.20279 6.36805,-15.22954 0.76233,-4.53688 -0.44889,-10.077363 -3.57498,-16.35302 C 153.296,89.530637 152.31386,87.866667 151.94387,87.5 l -0.67269,-0.666667 0.28108,2.833334 c 1.62247,16.355063 -3.93254,29.157503 -15.96893,36.803023 -1.05416,0.6696 -1.91666,1.38354 -1.91666,1.58653 0,0.49187 4.11102,0.1242 8.5,-0.7602 z m 89.5,-63.16123 c 0,-0.1092 -0.31397,-0.639463 -0.6977,-1.178363 l -0.69769,-0.97982 -3.21897,0.09503 c -1.87267,0.05528 -3.19083,0.23146 -3.15167,0.421226 0.037,0.17941 1.53702,0.651477 3.33333,1.04904 3.52719,0.78064 4.4327,0.901754 4.4327,0.592887 z m -77.20023,-4.152863 c 14.5127,-8.541697 42.32112,-15.039857 58.70023,-13.71683 2.01666,0.162896 3.79925,0.179806 3.96129,0.03758 0.34862,-0.305987 -2.96716,-3.869574 -4.75023,-5.105244 -3.34398,-2.31738 -19.11987,-1.061173 -29.3575,2.337687 -10.294,3.417573 -18.95699,7.890663 -28.85356,14.898383 -3.39891,2.40675 -3.55387,2.542994 -3.32099,2.919814 0.31515,0.509916 0.62147,0.393896 3.62076,-1.37139 z M 123.4196,48.463407 C 138.86592,38.040433 150.91034,33.265626 167.5,30.988478 c 5.71288,-0.784168 12.19794,-1.314014 16.46507,-1.34524 3.34341,-0.02447 4.98991,-0.333364 3.93488,-0.738218 -1.49679,-0.574371 -10.04723,-0.999888 -19.1251,-0.951772 -10.83315,0.05742 -13.71483,0.354635 -18.41988,1.899808 -5.95778,1.956581 -17.30668,8.448311 -23.07195,13.197481 -5.05251,4.162023 -9.60311,8.61613 -8.80279,8.61613 0.10576,0 2.32848,-1.441467 4.93937,-3.20326 z m 62.09601,-9.447914 c 4.59779,-1.003206 10.44879,-1.685646 16.40106,-1.91296 2.97916,-0.11377 5.41666,-0.322496 5.41666,-0.463836 0,-0.141337 -0.39523,-0.567864 -0.87828,-0.947837 C 205.65381,35.060603 205.13131,35 200.49871,35 c -5.59194,0 -9.2063,0.498413 -13.55569,1.869303 -2.6537,0.836424 -5.94302,2.29556 -5.94302,2.636314 0,0.320716 1.59077,0.148056 4.51561,-0.490124 z"
       id="path3771"
       inkscape:connector-curvature="0" />
    <path
       style="fill:#bebebe;fill-opacity:1;stroke-width:0.33333334"
       d="m 120.83333,258.8022 c -9.61111,-0.91468 -15.48644,-1.8615 -22.513593,-3.62812 C 49.14412,242.81137 11.377249,202.05123 2.87681,152.16667 c -1.4407105,-8.45477 -1.7006305,-11.81719 -1.7006305,-22 0,-9.83992 0.2582571,-13.4266 1.5240948,-21.16667 C 8.9202133,70.967667 32.272099,37.43035 66,18.090727 80.521147,9.764283 96.352143,4.49302 114,2.1081217 c 5.66039,-0.7649352 25.13894,-0.8740853 30.5,-0.1709101 22.47379,2.9477401 41.17952,9.9688904 58.66667,22.0203914 9.37208,6.458896 20.297,16.61636 27.29301,25.37573 25.77639,32.2734 34.58503,74.080387 24.05467,114.166667 -4.3423,16.53 -12.79208,33.29871 -23.59937,46.83333 -21.55265,26.99168 -51.81842,43.77303 -86.58165,48.00662 -3.05782,0.3724 -20.78101,0.72101 -23.5,0.46225 z M 138,250.98613 c 37.99635,-2.67761 71.95338,-22.42444 92.96826,-54.06329 10.26613,-15.45611 16.67982,-32.85824 19.25941,-52.25617 0.75462,-5.67459 0.84847,-22.17657 0.1583,-27.83334 -2.20224,-18.049757 -7.89869,-34.783967 -16.82838,-49.435993 -1.04001,-1.706467 -1.89092,-3.18331 -1.89092,-3.281877 0,-0.09857 -0.31986,-0.628407 -0.71079,-1.17742 l -0.71079,-0.998207 -3.70588,0.09494 c -2.95011,0.07558 -3.68576,0.0044 -3.60724,-0.34916 0.11852,-0.533633 2.0754,-2.94586 3.07251,-3.787466 l 0.71306,-0.60185 -0.92375,-1.231484 c -0.99215,-1.32267 -4.17443,-5.08342 -8.35928,-9.878816 -1.43065,-1.63937 -3.37595,-3.611917 -4.3229,-4.38344 -1.68392,-1.371967 -1.79371,-1.408324 -5,-1.655817 -6.85762,-0.529337 -17.70187,0.93509 -25.09138,3.38838 -10.31839,3.425673 -19.36842,8.10535 -28.81168,14.898227 -1.44363,1.038456 -2.75291,1.80891 -2.90951,1.712126 -0.41757,-0.25807 0.79484,-3.22054 2.57556,-6.293283 5.90463,-10.188807 15.91725,-18.558657 24.94621,-20.853277 3.05887,-0.777384 9.7705,-1.66558 12.5859,-1.66558 1.05964,0 1.92662,-0.118082 1.92662,-0.262405 0,-0.336199 -4.98581,-2.00322 -7.16666,-2.396195 -6.49077,-1.16959 -27.63127,-0.988042 -32.6964,0.280787 -5.67462,1.421508 -12.70952,4.812297 -19.90747,9.595303 -9.8405,6.53897 -17.30605,14.06254 -24.14813,24.3358 -1.87462,2.814707 -2.69594,3.78002 -3.21611,3.779957 -0.38421,-5e-5 -3.62356,-0.386593 -7.19856,-0.858987 -9.64457,-1.274416 -10.030123,-1.295213 -11.983527,-0.6464 -2.327733,0.77315 -4.665476,3.15483 -6.146396,6.26192 -0.631824,1.32562 -2.072487,5.41022 -3.201474,9.076887 -1.128986,3.666667 -2.47149,7.666727 -2.983343,8.889023 -1.421903,3.395477 -3.719123,6.583557 -6.97969,9.68641 -4.825403,4.591997 -8.724147,6.298917 -24.16638,10.580367 -12.217828,3.38746 -15.866036,4.8957 -18.069932,7.47046 -1.537751,1.79652 -4.553611,7.75932 -5.788011,11.44376 -2.248548,6.71146 -2.607713,11.52787 -1.18472,15.88709 1.011919,3.09993 2.696682,6.87714 3.065901,6.8737 0.148998,-0.001 0.608763,-1.23889 1.021701,-2.75 1.039265,-3.80311 3.419586,-8.51381 5.257703,-10.40509 1.557024,-1.60206 4.711129,-3.31133 5.741511,-3.11143 0.519147,0.10071 0.570314,0.48365 0.46506,3.48074 -0.148646,4.23282 0.459964,5.88722 2.762914,7.51049 2.559493,1.80409 6.532893,3.24352 6.517716,2.36115 -0.0023,-0.1375 -0.302366,-1.20087 -0.666666,-2.36303 -0.807817,-2.57704 -0.880977,-6.86316 -0.158667,-9.29544 0.574787,-1.93552 2.50597,-4.92487 3.18157,-4.92487 0.249067,0 0.95648,0.9 1.572033,2 1.38597,2.47675 3.007814,4.17695 5.026674,5.26952 1.593276,0.86225 5.567926,1.82303 5.952156,1.43879 0.118674,-0.11867 -0.09745,-0.77659 -0.480273,-1.46204 -1.174053,-2.10215 -1.8409,-4.96377 -1.69407,-7.26969 0.113087,-1.77598 0.333157,-2.3936 1.41003,-3.95717 C 58.283613,126.67406 58.984387,126 59.398003,126 c 0.357587,0 2.263527,0.37156 4.235427,0.82568 1.9719,0.45412 4.650307,0.92466 5.952017,1.04564 l 2.366743,0.21997 1.786723,-1.79565 c 0.9827,-0.9876 3.244877,-3.621 5.027064,-5.852 1.782183,-2.23099 3.67147,-4.41913 4.19841,-4.86252 1.018703,-0.85718 7.493256,-3.50961 11.268353,-4.6163 4.82237,-1.4137 10.19061,-1.19341 14.67609,0.60225 3.57482,1.4311 2.88415,1.65788 -4.55201,1.49467 -3.65375,-0.0802 -7.01675,-0.052 -7.473343,0.0626 -1.095567,0.27497 -3.731244,2.93719 -4.606567,4.65296 -0.623323,1.22182 -0.677973,1.7654 -0.523793,5.21011 0.26455,5.91058 0.86989,8.01432 4.28511,14.89207 2.274116,4.57974 3.046913,6.47956 3.18639,7.83333 0.255603,2.48096 -0.47953,19.48593 -1.08091,25.00335 -0.974577,8.94136 -1.9001,10.66739 -6.310374,11.7683 -1.1,0.27458 -3.74125,0.6358 -5.869446,0.8027 -4.36307,0.34217 -6.298004,1.00831 -6.295974,2.16753 0.0017,0.96993 1.010774,2.55512 3.62159,5.68928 2.054767,2.46666 2.431267,2.75187 5.61498,4.25363 4.97864,2.34841 8.950947,3.60244 11.411237,3.60244 3.57745,0 4.20014,-0.63428 7.18843,-7.32224 2.66931,-5.97406 9.58378,-22.42292 17.3796,-41.34443 4.11665,-9.99166 7.67161,-18.35602 7.89991,-18.58746 0.3166,-0.32096 0.83503,-0.34116 2.185,-0.0851 2.94925,0.55932 7.03839,-0.31833 11.36321,-2.43887 6.3281,-3.10278 10.76042,-9.53076 13.19817,-19.14065 1.52121,-5.9968 1.81167,-12.335047 0.78136,-17.050787 -0.521,-2.384666 -3.07905,-7.254906 -6.50976,-12.393866 -1.72423,-2.58279 -3.13497,-4.757607 -3.13497,-4.83293 0,-0.88458 7.39228,3.488616 11.34405,6.711023 2.8184,2.29822 8.54313,8.19883 9.95464,10.260477 1.47004,2.14713 3.10569,5.75782 4.18829,9.245633 l 0.8859,2.85408 3.33868,0.75294 c 3.92177,0.88444 8.99013,2.52331 13.01814,4.20947 2.66467,1.11545 3.02548,1.38662 4.92601,3.70223 6.81442,8.3027 11.49687,18.98574 13.57018,30.96053 0.72144,4.16677 0.80745,16.16487 0.14816,20.66667 -2.55102,17.41895 -8.93656,30.75977 -20.02817,41.84333 -11.07891,11.07088 -26.15005,18.97217 -45.17922,23.68594 -13.53615,3.35309 -22.90043,3.98676 -36.16666,2.44736 -19.48855,-2.26144 -41.5037,-9.42109 -64.653327,-21.02622 -4.850993,-2.43185 -8.881576,-4.35996 -8.95685,-4.28468 -0.291066,0.29106 2.110257,2.91271 7.34531,8.01927 9.30767,9.0792 17.26988,15.00337 28.264864,21.03006 13.133613,7.19895 30.533393,12.47906 45.379243,13.77072 8.42671,0.73317 13.16169,0.81235 19.95409,0.33368 z M 29.177003,121.68339 c -0.107621,-0.17413 0.09473,-0.47203 0.44966,-0.66198 C 31.379535,120.0833 38.871417,117 39.397987,117 39.904687,117 40,117.28715 40,118.81366 c 0,0.99751 -0.15235,1.90782 -0.338553,2.0229 -0.333824,0.20631 -8.139066,1.15364 -9.558441,1.16011 -0.401681,0.002 -0.818382,-0.13914 -0.926003,-0.31328 z M 79.871757,93.72884 c -0.10762,-0.174137 0.8444,-1.721863 2.1156,-3.439393 2.817976,-3.80739 5.257436,-8.382314 7.519936,-14.102767 0.93828,-2.372327 1.865064,-4.366353 2.059517,-4.431173 0.547737,-0.182577 0.71923,1.492576 0.963957,9.41602 0.187083,6.05705 0.145986,7.401946 -0.23539,7.70336 -0.358847,0.28361 -8.592687,3.781006 -11.678327,4.960473 -0.30229,0.11555 -0.63767,0.06761 -0.745293,-0.10652 z m 49.755163,134.93312 c 12.64194,-0.76887 22.90569,-3.26289 33.87562,-8.23156 7.95837,-3.60463 17.27409,-9.35795 23.19215,-14.32331 16.64699,-13.96711 25.21343,-42.60011 20.77524,-69.44042 -0.71156,-4.30322 -2.89415,-10.76875 -4.63427,-13.72821 -4.13515,-7.03272 -12.35748,-11.77542 -23.81107,-13.73439 -4.8322,-0.82648 -7.52271,-0.71273 -11.36311,0.48039 -1.80182,0.55978 -3.41011,1.19728 -3.57397,1.41666 -0.16386,0.21939 -0.71885,1.67388 -1.23332,3.23221 -2.94164,8.91033 -9.14042,16.58323 -16.36422,20.2558 -2.14496,1.09049 -5.10419,1.83285 -8.15664,2.04618 l -2.83333,0.19802 -3.24829,8.5 c -7.77583,20.34748 -12.23063,31.13244 -19.91748,48.21977 -3.51059,7.80378 -5.43597,10.01965 -9.43089,10.8538 -1.7777,0.37118 -2.22485,0.32744 -5.666667,-0.55436 C 88.1023,201.51229 82.527747,198.5756 75.446397,192.37338 72.637687,189.91336 62,177.98759 62,177.2988 c 0,-0.42305 0.704687,-0.38686 8.176833,0.41987 7.77585,0.83953 16.49287,0.99508 19.038477,0.33974 3.145703,-0.80984 3.702903,-1.98243 4.143103,-8.71891 0.173934,-2.66172 0.539447,-6.89552 0.81225,-9.40844 0.565744,-5.21133 0.634367,-11.39202 0.150974,-13.59773 -0.180804,-0.825 -1.83101,-4.5 -3.667127,-8.16666 -3.963477,-7.91494 -4.83961,-10.79342 -4.562713,-14.99045 0.09711,-1.47192 0.281746,-2.93746 0.4103,-3.25674 0.15859,-0.39388 0.04517,-0.65289 -0.352764,-0.80559 -0.74802,-0.28704 -1.571113,0.69995 -2.3419,2.80823 -2.517726,6.88656 -4.432973,9.53284 -8.25454,11.40523 -3.816603,1.86996 -6.77335,2.02786 -11.349236,0.60608 -2.231974,-0.6935 -2.30906,-0.69611 -2.75,-0.0931 -0.719627,0.98415 -0.540877,2.14494 0.46301,3.00676 0.504166,0.43282 2.55737,2.03179 4.562676,3.55326 2.005307,1.52147 3.696907,2.92861 3.759114,3.12698 0.17305,0.55184 -11.769677,1.94042 -14.160627,1.64646 -2.603083,-0.32003 -5.012983,-1.2072 -7.171937,-2.64023 -0.994526,-0.66013 -1.905203,-1.20024 -2.02373,-1.20024 -0.461896,0 -0.18371,2.92139 0.384277,4.03546 0.947623,1.85871 5.718337,8.21123 6.600857,8.78948 0.78116,0.51183 1.051023,1.31352 0.54701,1.62502 -0.310684,0.19201 -7.120934,-1.14355 -11.515287,-2.25827 -6.012053,-1.52508 -10.079003,-4.27116 -12.03123,-8.12369 -0.483461,-0.95406 -1.028698,-1.73466 -1.211638,-1.73466 -0.527726,0 -1.536277,1.88718 -2.333384,4.36619 -0.403857,1.256 -1.210514,5.08953 -1.792572,8.51896 -0.582057,3.42942 -1.201965,6.27601 -1.377574,6.32574 -0.313032,0.0887 -1.903899,-2.04941 -5.988286,-8.04798 -3.471323,-5.09819 -4.922109,-9.92301 -4.910185,-16.32958 0.01186,-6.37192 1.874135,-13.83944 4.619503,-18.52369 2.477565,-4.22732 7.964944,-8.94821 12.978063,-11.16525 1.079541,-0.47742 4.45471,-1.52393 7.500376,-2.32557 13.106617,-3.44975 21.02703,-7.416883 27.167797,-13.60767 4.59681,-4.63425 6.54722,-8.294163 8.28518,-15.54699 2.254123,-9.406893 7.07424,-14.982327 14.136663,-16.351897 2.738367,-0.531033 8.599747,-0.213763 12.541377,0.67885 3.76867,0.853447 4.2521,0.845974 4.81608,-0.07445 1.5063,-2.45834 6.50289,-8.684673 9.428,-11.748393 10.83691,-11.350437 25.0418,-19.760103 39.75535,-23.536208 6.00109,-1.540129 9.58628,-2.023068 16.37666,-2.206 7.11803,-0.19176 10.97607,0.105334 16.47413,1.268612 1.74167,0.368501 3.61667,0.756644 4.16667,0.862541 l 1,0.192538 -0.66667,-0.67786 c -0.90194,-0.917087 -6.64887,-4.047471 -11.24322,-6.124248 -12.81486,-5.792674 -24.8264,-9.021576 -38.92344,-10.463271 -6.82486,-0.697973 -20.55884,-0.5294937 -27,0.331218 C 94.654967,12.156359 75.913003,19.465716 59.75268,30.898689 42.26466,43.270973 27.948813,60.587 19.176319,79.978663 3.904778,113.73652 4.871747,152.78109 21.789185,185.48176 c 3.350064,6.47552 5.278419,9.62715 9.432295,15.41577 2.553157,3.55794 3.421933,4.52238 4.550413,5.05144 1.558004,0.73044 24.571327,8.64105 36.394774,12.51036 21.432943,7.01407 32.184103,9.45831 44.780813,10.18076 6.6749,0.38282 6.74254,0.38294 12.67944,0.0219 z M 185.51561,39.015493 c 4.59779,-1.003206 10.44879,-1.685646 16.40106,-1.91296 2.97916,-0.11377 5.41666,-0.322496 5.41666,-0.463836 0,-0.141337 -0.39523,-0.567864 -0.87828,-0.947837 C 205.65381,35.060603 205.13131,35 200.49871,35 c -5.59194,0 -9.2063,0.498413 -13.55569,1.869303 -2.6537,0.836424 -5.94302,2.29556 -5.94302,2.636314 0,0.320716 1.59077,0.148056 4.51561,-0.490124 z"
       id="path3769"
       inkscape:connector-curvature="0"
       inkscape:label="eye-teeth_border" />
    <path
       style="display:none;fill:#2d2d2d;fill-opacity:1;stroke-width:0.33333334"
       d="m 120.83333,258.8022 c -9.61111,-0.91468 -15.48644,-1.8615 -22.513593,-3.62812 C 49.14412,242.81137 11.377249,202.05123 2.87681,152.16667 c -1.4407105,-8.45477 -1.7006305,-11.81719 -1.7006305,-22 0,-9.83992 0.2582571,-13.4266 1.5240948,-21.16667 C 8.9202133,70.967667 32.272099,37.43035 66,18.090727 80.521147,9.764283 96.352143,4.49302 114,2.1081217 c 5.66039,-0.7649352 25.13894,-0.8740853 30.5,-0.1709101 22.47379,2.9477401 41.17952,9.9688904 58.66667,22.0203914 9.37208,6.458896 20.297,16.61636 27.29301,25.37573 25.77639,32.2734 34.58503,74.080387 24.05467,114.166667 -4.3423,16.53 -12.79208,33.29871 -23.59937,46.83333 -21.55265,26.99168 -51.81842,43.77303 -86.58165,48.00662 -3.05782,0.3724 -20.78101,0.72101 -23.5,0.46225 z M 144,250.83449 c 34.44695,-4.13259 64.85633,-22.1907 85.10297,-50.53702 20.6,-28.84104 27.43209,-66.29964 18.39431,-100.851353 -3.28846,-12.571907 -9.22857,-25.972854 -15.89654,-35.862784 l -1.29225,-1.916666 h -3.32091 c -1.8265,0 -3.32091,-0.107784 -3.32091,-0.239517 0,-0.131737 0.77669,-1.025987 1.72599,-1.987223 2.11673,-2.14335 2.19876,-1.884554 -2.3092,-7.284544 -4.66352,-5.58634 -10.84603,-11.691986 -12.33762,-12.18426 -1.63739,-0.540386 -12.97523,-0.199036 -16.91251,0.509184 -7.99604,1.438303 -12.80932,2.97722 -22.1512,7.08225 -6.00428,2.638416 -6.86703,3.12972 -13.83868,7.88069 -3.1111,2.120123 -5.7162,3.795113 -5.78911,3.722203 -0.28586,-0.285857 2.09893,-4.831687 4.15568,-7.92146 3.97192,-5.966863 10.81636,-12.266543 16.63572,-15.31167 4.31669,-2.25881 11.98317,-3.903337 18.42133,-3.95153 1.41145,-0.01057 3.16626,-0.129874 3.8996,-0.26513 1.2321,-0.227251 1.2802,-0.275258 0.63348,-0.632344 -0.38491,-0.212533 -2.29701,-0.920792 -4.24911,-1.573909 -2.98559,-0.998897 -4.43611,-1.26572 -9.13348,-1.680107 -10.36592,-0.914447 -24.09507,-0.521585 -29.43706,0.842345 -6.11105,1.560291 -14.81867,5.936738 -22.48072,11.298808 -7.92755,5.54787 -15.64486,13.626554 -21.68691,22.702417 l -2.26794,3.40672 -2.18913,-0.20823 c -1.20402,-0.114527 -5.013183,-0.60372 -8.464797,-1.087093 -7.24915,-1.015197 -8.848906,-0.872904 -11.312593,1.006213 -3.208443,2.44716 -4.89232,5.787267 -7.72058,15.314397 -1.80504,6.080363 -3.28488,9.763643 -4.857143,12.0893 -4.150844,6.139836 -9.064524,9.763293 -16.83402,12.413773 -1.65,0.56289 -6.75,2.06909 -11.333334,3.34712 -16.771622,4.67667 -18.328923,5.6265 -22.185506,13.53145 C 18.5467,128.84299 17,134.40281 17,139.19373 c 0,2.02624 0.237777,3.26576 1.148657,5.98788 1.381439,4.12837 3.067926,7.57953 3.614825,7.39723 0.218862,-0.073 0.746921,-1.47054 1.173467,-3.10574 0.985259,-3.77709 3.266045,-8.62462 4.918531,-10.45372 1.321798,-1.46307 4.234082,-3.34409 5.186004,-3.34959 0.471753,-0.003 0.519843,0.37642 0.373433,2.94421 -0.107616,1.88744 -0.01993,3.3961 0.243803,4.19526 0.49242,1.49204 2.036363,3.32461 3.660513,4.34481 1.526547,0.95889 4.808067,2.17926 5.859937,2.17926 1.027447,0 1.048593,-0.54174 0.12386,-3.17277 -0.876697,-2.49436 -0.949907,-7.24456 -0.146317,-9.49389 0.59903,-1.67676 2.034067,-4 2.470747,-4 0.15657,0 0.86694,0.99954 1.578607,2.22119 1.506833,2.58667 3.646706,4.42639 6.305743,5.42126 1.898047,0.71015 5.295817,0.93849 5.641523,0.37912 0.105974,-0.17147 -0.253706,-1.01564 -0.799286,-1.87593 -1.9968,-3.14863 -2.256174,-7.91631 -0.569337,-10.46529 0.502257,-0.75896 1.13963,-1.46682 1.416387,-1.57302 0.276756,-0.1062 2.31652,0.20888 4.53281,0.70018 2.21629,0.49131 4.960673,0.98022 6.09863,1.08649 2.0416,0.19065 2.088066,0.17607 3.507303,-1.1004 1.340417,-1.20557 6.32695,-7.04664 8.425623,-9.8695 1.206974,-1.62347 2.87021,-2.56129 7.734537,-4.36117 7.09544,-2.62543 11.73574,-3.21077 16.22872,-2.04715 3.74901,0.97095 3.34013,1.13022 -2.92871,1.14075 l -6.033317,0.0101 -1.311966,0.95039 c -1.733984,1.25609 -3.07793,2.88113 -3.884927,4.69748 -0.568043,1.27853 -0.63298,1.96269 -0.474563,5 0.316563,6.06943 0.914186,8.13903 4.336856,15.0188 L 98.5,144.16664 98.42915,151.8333 c -0.14662,15.86549 -1.25492,25.9173 -3.118877,28.28694 -0.96898,1.23186 -4.21387,2.13322 -9.11123,2.5309 C 80.794763,183.09001 79,183.80023 79,185.49998 c 0,0.97981 2.132503,4.18061 4.538463,6.81205 1.65888,1.81435 2.487454,2.39351 5.370047,3.75362 8.709607,4.10951 13.39562,4.65912 15.99431,1.87595 1.4228,-1.52381 7.94313,-16.68662 24.55781,-57.10827 l 3.56229,-8.66666 h 3.73854 c 4.02573,0 5.59263,-0.3642 9.46012,-2.19881 4.72348,-2.24067 7.86943,-5.50934 10.67184,-11.08811 3.09961,-6.17042 4.56172,-12.33007 4.56059,-19.213083 -0.001,-6.952107 -1.15474,-10.225977 -6.44498,-18.290767 -1.4879,-2.268253 -2.63278,-4.1966 -2.54417,-4.28521 0.38379,-0.383783 7.98921,4.781107 11.03514,7.494033 6.93872,6.180124 9.71625,10.214944 11.97851,17.400767 0.48809,1.55036 1.03269,2.99385 1.21023,3.20777 0.17753,0.21392 1.25769,0.5696 2.40036,0.79041 5.22129,1.00896 15.46435,4.56506 17.1019,5.93729 2.61154,2.18841 6.70764,8.18231 9.38313,13.73052 4.75898,9.86875 7.10042,21.18131 6.62813,32.02347 -1.55467,35.6903 -22.31485,60.17172 -60.50608,71.35175 -5.41448,1.58503 -13.99298,3.4436 -18.52951,4.0145 -4.86578,0.61234 -16.02884,0.52539 -21.83334,-0.17006 -18.638437,-2.23311 -39.202503,-8.59474 -60.666663,-18.76764 -5.775017,-2.73706 -13.515817,-6.87601 -13.11168,-7.01072 0.17169,-0.0572 5.254556,1.60285 11.295256,3.68906 43.92644,15.17041 56.395297,18.20588 74.816427,18.21358 22.20277,0.009 41.74296,-6.63308 60.30568,-20.49994 16.66567,-12.44971 25.90272,-35.95233 24.65565,-62.73353 -0.39876,-8.56364 -1.97445,-15.47139 -4.88796,-21.42862 -4.04569,-8.27218 -12.85451,-13.52618 -26.00005,-15.50768 -4.88293,-0.73604 -6.41553,-0.62097 -10.38866,0.77994 l -3.48201,1.22774 -1.20723,3.5 c -2.52241,7.31301 -6.26255,12.8149 -11.59414,17.05541 -4.06885,3.23617 -8.36255,4.94071 -12.56795,4.98928 -1.1,0.0127 -2.25399,0.0903 -2.56443,0.17234 -0.36414,0.0963 -1.09919,1.53323 -2.07144,4.04944 -0.82885,2.14511 -3.08219,7.99096 -5.00742,12.99078 -4.56716,11.86094 -9.34829,23.54981 -12.43785,30.40796 -1.36311,3.0258 -3.36728,7.49557 -4.45371,9.93282 -2.36135,5.29732 -3.09049,6.50201 -4.95471,8.18622 -1.84295,1.665 -3.22342,2.21575 -5.55377,2.21575 -1.96983,0 -3.11427,-0.27189 -9.321267,-2.21454 -5.975516,-1.8702 -12.124833,-5.68447 -17.85358,-11.07413 -3.074806,-2.89282 -11.94849,-13.09143 -11.94849,-13.73253 0,-0.22059 0.362824,-0.29241 0.916667,-0.18145 0.504167,0.10101 4.216667,0.50239 8.25,0.89196 9.263873,0.89478 16.93411,0.81308 18.99072,-0.20228 2.495143,-1.23187 2.516973,-1.33165 3.883717,-17.75087 C 95.41801,147.5326 95.366653,147.20112 91.03267,138.5 c -4.56989,-9.17474 -5.33634,-11.93511 -4.661377,-16.78794 0.397094,-2.85499 0.09477,-3.57022 -1.065553,-2.52085 -0.900907,0.81477 -1.683317,2.37559 -2.622123,5.23087 -1.422804,4.3273 -4.207197,7.48137 -8.233884,9.32705 -2.280003,1.04507 -7.71181,1.03281 -10.583126,-0.0239 C 61.546583,132.87143 61,133.11038 61,134.97843 c 0,1.45981 0.340273,1.81242 5.333333,5.52669 1.925,1.43198 3.570657,2.66229 3.657014,2.73402 0.43263,0.35936 -1.12599,0.69284 -5.812107,1.24352 -6.80683,0.7999 -9.6959,0.62853 -12.641397,-0.74984 -1.23499,-0.57792 -2.631233,-1.35423 -3.10276,-1.72513 -1.329153,-1.04552 -2.103713,-0.89367 -2.08612,0.40896 0.008,0.59583 0.212834,1.63845 0.455077,2.31692 0.54709,1.53226 3.772603,6.07396 6.147267,8.65569 1.293776,1.40659 1.65246,1.9895 1.305996,2.12245 -0.423696,0.16259 -8.162623,-1.28745 -11.741223,-2.19995 -5.563883,-1.4187 -9.66669,-4.33524 -11.675682,-8.29979 -0.467846,-0.92325 -1.000306,-1.67864 -1.183246,-1.67864 -1.221476,0 -3.064109,5.65398 -4.331281,13.29021 -0.528462,3.18461 -1.046197,5.87556 -1.150522,5.97989 -0.209845,0.20984 -0.146267,0.29265 -4.265355,-5.55524 -1.608386,-2.28343 -3.360288,-5.06591 -3.893114,-6.18328 -3.279043,-6.87635 -3.494482,-15.44764 -0.616599,-24.53158 2.198823,-6.94051 5.448102,-11.22746 11.434052,-15.08556 3.139872,-2.02373 5.741153,-3.0727 10.976854,-4.42643 17.982923,-4.64961 28.70727,-11.5673 33.570776,-21.654673 0.727474,-1.50885 1.780697,-4.63437 2.425767,-7.19865 1.329353,-5.284437 2.503813,-8.028907 4.6223,-10.80135 2.735287,-3.57964 6.151643,-5.550724 10.721487,-6.185814 3.162843,-0.439553 5.977933,-0.21013 11.331873,0.92353 l 3.98239,0.843244 0.68428,-0.827277 c 0.37635,-0.455003 1.80927,-2.378897 3.18427,-4.27532 3.06513,-4.227477 10.04442,-11.49484 14.4195,-15.01468 9.71273,-7.814073 20.32498,-13.206398 31.76383,-16.139923 6.58481,-1.688692 11.37109,-2.284189 18.48334,-2.299649 6.65504,-0.01447 10.14072,0.359369 15.77137,1.691464 5.20925,1.232402 5.13486,0.810413 -0.4123,-2.338623 -13.38514,-7.598532 -29.83259,-12.668334 -46.6924,-14.392575 -6.82486,-0.697973 -20.55884,-0.5294937 -27,0.331218 C 94.654967,12.156359 75.913003,19.465716 59.75268,30.898689 39.715977,45.074093 24.043694,65.53446 15.797966,88.282133 5.511186,116.6605 5.8970973,146.85806 16.904052,174.83333 c 4.268836,10.84968 12.972375,25.75473 17.845948,30.5617 0.870833,0.85893 1.583333,1.71757 1.583333,1.9081 0,1.12063 9.71869,11.018 15.87798,16.16991 18.532747,15.50163 42.20997,25.44892 65.455357,27.49913 2.29166,0.20213 4.61666,0.42922 5.16666,0.50465 2.24474,0.30787 16.97141,-0.13903 21.16667,-0.64233 z M 31.666667,121.00148 c 0,-0.24443 6.90419,-3.34353 7.435833,-3.33774 0.14804,0.002 0.22304,0.64043 0.166667,1.41959 l -0.1025,1.41667 -2.333334,0.23685 c -1.283333,0.13027 -2.970833,0.29934 -3.75,0.37572 -0.779166,0.0764 -1.416666,0.0264 -1.416666,-0.11109 z M 81,92.81226 c 0,-0.09791 0.992563,-1.55822 2.205697,-3.245137 2.21649,-3.082136 5.759573,-9.93709 7.14158,-13.817123 0.408126,-1.145833 0.856356,-2.083333 0.996066,-2.083333 0.13971,0 0.345647,2.2125 0.457637,4.916666 0.111993,2.704167 0.273867,5.891667 0.359727,7.083334 0.08586,1.191666 0.04732,2.33709 -0.08563,2.545383 C 91.757257,88.70995 81,93.17815 81,92.81226 Z M 184.99995,39.315687 c 5.19822,-1.134527 9.85086,-1.688417 16.16672,-1.924624 6.60304,-0.24695 7.09312,-0.449403 4.83333,-1.99663 -1.14057,-0.78092 -1.28595,-0.795046 -6.5,-0.631493 -3.04198,0.09542 -6.47901,0.408007 -8,0.72757 C 185.32671,36.787537 177.91722,40 181.09894,40 c 0.42108,0 2.17654,-0.30794 3.90101,-0.684313 z"
       id="path3767"
       inkscape:connector-curvature="0"
       inkscape:label="eye-teeth_1" />
    <path
       style="fill:#bebebe;stroke-width:0.33333334"
       d="M 120.66667,258.31616 C 93.057797,256.29187 66.781547,245.40294 45.846177,227.31041 41.56891,223.61396 33.57347,215.40207 30.283023,211.32593 16.307166,194.01295 6.8914757,173.36484 3.3577767,152.2803 1.9356683,143.795 1.5816916,139.44654 1.5712308,130.33333 1.5603006,120.81127 2.0238312,115.33184 3.545106,107 9.8032963,72.724643 29.669866,42.51807 58.666667,23.189185 75.355297,12.064764 93.32477,5.3652107 113.83333,2.6214128 c 7.59119,-1.0156095 23.7164,-1.1096954 31,-0.180876 30.16162,3.8462689 56.67017,16.9637532 77.33334,38.2676102 19.70469,20.315666 31.68028,45.397283 35.39218,74.125183 0.84555,6.54412 0.8495,24.43189 0.007,30.5 -1.79237,12.90533 -3.96198,21.4401 -8.1327,31.99224 -6.61558,16.73777 -15.86801,30.79619 -28.75389,43.68955 -20.70181,20.71381 -46.91148,33.34831 -76.34566,36.80282 -5.51753,0.64756 -18.03564,0.91109 -23.66666,0.49822 z m 25.16666,-7.28015 c 11.77787,-1.66992 21.60905,-4.36913 31.98274,-8.78103 5.53594,-2.35442 6.82797,-2.99286 11.8506,-5.85582 23.69186,-13.50469 42.35085,-34.39489 52.60835,-58.89916 5.63468,-13.46078 8.39084,-25.53034 9.46333,-41.44119 0.89416,-13.26511 -1.45198,-30.59073 -5.95927,-44.007703 -1.90291,-5.66444 -3.34077,-9.192907 -5.99756,-14.717774 -2.69853,-5.611676 -7.65075,-14.13383 -9.2976,-16 -0.99538,-1.127936 -2.44837,-3.17494 -3.61595,-5.09421 -1.89061,-3.107803 -12.16162,-14.11001 -15.7013,-16.81908 -1.1,-0.841876 -2.54442,-2.145766 -3.20982,-2.897533 -0.6654,-0.751767 -1.63691,-1.589373 -2.1589,-1.861347 -0.81736,-0.42587 -6.33653,-4.248456 -10.82078,-7.494496 C 188.97533,22.82208 178.69981,17.82185 168.83333,14.444661 161.19186,11.829068 150.59577,9.556251 141.66667,8.6175287 135.90649,8.0119577 122.46987,8.106521 116.72388,8.793069 107.19789,9.9312643 99.085783,11.752401 90.5,14.680231 49.503057,28.660566 18.848068,63.577093 10.327093,105.99847 8.744372,113.87799 8.3092277,117.98803 8.1035857,127 c -0.269216,11.798 0.414487,19.16526 2.7627153,29.76971 4.077621,18.41428 12.38823,35.39458 24.937966,50.95344 2.993116,3.7108 13.56525,14.10675 17.695733,17.40084 17.419397,13.8921 38.061497,22.8279 59.45424,25.73725 7.33209,0.99715 8.90384,1.08117 18.37909,0.98256 7.4881,-0.0779 10.5589,-0.24901 14.5,-0.80779 z"
       id="path3765"
       inkscape:connector-curvature="0" />
  </g>
  <g
     inkscape:groupmode="layer"
     id="layer1"
     inkscape:label="eye"
     transform="translate(0,-236)">
    <path
       style="display:inline;opacity:1;fill:#2d2d2d;fill-opacity:1;stroke:#000000;stroke-width:0.01917041;stroke-linecap:butt;stroke-linejoin:miter;stroke-miterlimit:4;stroke-dasharray:none;stroke-opacity:1"
       d="m 6.8794483,246.25636 c 0.688182,-0.96336 1.3363225,-2.08543 1.9734807,-3.6449 0.081024,0.96141 0.1376104,1.87396 0.1686609,2.73544 -0.8691864,0.45826 -1.4538375,0.63205 -2.1421416,0.90946 z"
       id="path4509"
       inkscape:connector-curvature="0"
       sodipodi:nodetypes="cccc" />
  </g>
</svg>
