<?xml version="1.0" encoding="UTF-8" standalone="no"?>
<svg
   xmlns:dc="http://purl.org/dc/elements/1.1/"
   xmlns:cc="http://creativecommons.org/ns#"
   xmlns:rdf="http://www.w3.org/1999/02/22-rdf-syntax-ns#"
   xmlns:svg="http://www.w3.org/2000/svg"
   xmlns="http://www.w3.org/2000/svg"
   xmlns:sodipodi="http://sodipodi.sourceforge.net/DTD/sodipodi-0.dtd"
   xmlns:inkscape="http://www.inkscape.org/namespaces/inkscape"
   version="1.1"
   id="Capa_1"
   viewBox="0 0 24 24"
   sodipodi:docname="mail.svg"
   width="24"
   height="24"
   inkscape:version="0.92.2 5c3e80d, 2017-08-06">
  <metadata
     id="metadata3969">
    <rdf:RDF>
      <cc:Work
         rdf:about="">
        <dc:format>image/svg+xml</dc:format>
        <dc:type
           rdf:resource="http://purl.org/dc/dcmitype/StillImage" />
        <dc:title />
      </cc:Work>
    </rdf:RDF>
  </metadata>
  <defs
     id="defs3967" />
  <sodipodi:namedview
     pagecolor="#ffffff"
     bordercolor="#666666"
     borderopacity="1"
     objecttolerance="10"
     gridtolerance="10"
     guidetolerance="10"
     inkscape:pageopacity="0"
     inkscape:pageshadow="2"
     inkscape:window-width="1041"
     inkscape:window-height="765"
     id="namedview3965"
     showgrid="false"
     inkscape:zoom="7.1223729"
     inkscape:cx="-7.430653"
     inkscape:cy="19.533503"
     inkscape:window-x="23"
     inkscape:window-y="90"
     inkscape:window-maximized="0"
     inkscape:current-layer="Capa_1" />
  <path
     style="fill:#bebebe;stroke-width:0.05868472"
     d="M 21.976523,4.8874999 H 2.0140838 c -0.3258215,6.456e-4 -0.631514,0.15786 -0.8215962,0.4225249 L 2.0187786,5.8264439 11.999998,12.056337 21.976523,5.8264439 22.79812,5.3100248 C 22.608037,5.0453599 22.302344,4.888145 21.976523,4.8874999 Z"
     id="path3956"
     inkscape:connector-curvature="0" />
  <path
     style="fill:#bebebe;stroke-width:0.05868472"
     d="m 22.061031,17.966988 -7.840376,-6.192335 -1.97183,1.234711 c -0.15223,0.09513 -0.345423,0.09513 -0.497654,0 l -1.9718296,-1.234711 -7.8403749,6.192335 -0.798122,0.633787 c 0.1798709,0.315486 0.5147886,0.510669 0.8779341,0.511725 H 21.985913 c 0.363145,-0.0011 0.698005,-0.196239 0.877934,-0.511725 z"
     id="path3958"
     inkscape:connector-curvature="0" />
  <polygon
     style="fill:#bebebe"
     points="16,268.8 135.12,174.56 16,100.16 0,90.24 0,281.44 "
     id="polygon3960"
     transform="matrix(0.05868545,0,0,0.058684,0.99999925,1.0002722)" />
  <polygon
     style="fill:#bebebe"
     points="374.88,281.44 374.88,90.24 358.88,100.16 239.76,174.56 358.88,268.8 "
     id="polygon3962"
     transform="matrix(0.05868545,0,0,0.058684,0.99999925,1.0002722)" />
</svg>
