<?xml version="1.0" encoding="UTF-8" standalone="no"?>
<svg
   xmlns:dc="http://purl.org/dc/elements/1.1/"
   xmlns:cc="http://creativecommons.org/ns#"
   xmlns:rdf="http://www.w3.org/1999/02/22-rdf-syntax-ns#"
   xmlns:svg="http://www.w3.org/2000/svg"
   xmlns="http://www.w3.org/2000/svg"
   xmlns:sodipodi="http://sodipodi.sourceforge.net/DTD/sodipodi-0.dtd"
   xmlns:inkscape="http://www.inkscape.org/namespaces/inkscape"
   version="1.1"
   id="Capa_1"
   sodipodi:docname="skull.svg"
   inkscape:version="0.92.2 5c3e80d, 2017-08-06"
   width="24"
   height="24">
  <metadata
     id="metadata92">
    <rdf:RDF>
      <cc:Work
         rdf:about="">
        <dc:format>image/svg+xml</dc:format>
        <dc:type
           rdf:resource="http://purl.org/dc/dcmitype/StillImage" />
        <dc:title />
      </cc:Work>
    </rdf:RDF>
  </metadata>
  <defs
     id="defs90" />
  <sodipodi:namedview
     pagecolor="#ffffff"
     bordercolor="#666666"
     borderopacity="1"
     objecttolerance="10"
     gridtolerance="10"
     guidetolerance="10"
     inkscape:pageopacity="0"
     inkscape:pageshadow="2"
     inkscape:window-width="1440"
     inkscape:window-height="878"
     id="namedview88"
     showgrid="false"
     inkscape:zoom="18.88"
     inkscape:cx="9.9737592"
     inkscape:cy="11.976308"
     inkscape:window-x="0"
     inkscape:window-y="0"
     inkscape:window-maximized="1"
     inkscape:current-layer="Capa_1" />
  <path
     d="m 22.237563,18.849398 c -0.492634,-0.311739 -1.420215,-0.298979 -2.183851,-0.218569 l -1.83985,-1.840513 c 0.188103,-0.15598 0.332118,-0.364869 0.393103,-0.646908 0,0 0.394688,-0.910578 -0.589919,-2.072822 0,0 -0.262817,-1.126825 0.0594,-2.322808 0.287765,-1.058637 0.372907,-2.7114026 -0.151143,-4.2545434 l 2.128408,-2.1274588 c 0.764428,0.0803 1.692801,0.0946 2.185567,-0.2191193 0.125269,-0.0638 0.244336,-0.1479495 0.352842,-0.2551991 0.370662,-0.3710287 0.488672,-0.899357 0.352842,-1.3720693 C 22.880799,3.3023587 22.764119,3.0957795 22.59212,2.92308 22.286798,2.6176111 21.877591,2.4841815 21.477358,2.5219114 21.514318,2.1229427 21.379282,1.7120941 21.075412,1.4076261 20.901827,1.2347067 20.696035,1.1178871 20.47744,1.0548573 c -0.470985,-0.13584954 -1.000712,-0.0198 -1.371241,0.3527688 -0.107052,0.1056 -0.189821,0.2246193 -0.25635,0.3532088 -0.311921,0.4923584 -0.299117,1.4198422 -0.218596,2.1850107 L 16.910337,5.6642598 C 16.588778,5.2784911 16.205311,4.9263823 15.73921,4.6250933 14.850965,4.0535352 13.83415,3.5649168 11.654394,3.5287269 10.266386,3.5067271 8.2621929,3.7705062 6.7606644,5.3402008 L 5.3673778,3.9457906 C 5.4472378,3.1806331 5.460572,2.2523133 5.1458773,1.7599879 5.0827835,1.6330484 4.9988264,1.5136988 4.8905846,1.4083191 4.5204502,1.0366304 3.9904601,0.91970076 3.519343,1.0555503 3.3007463,1.1182501 3.0949547,1.2356197 2.9213719,1.4083191 2.6175015,1.7129081 2.4841788,2.1227667 2.5210077,2.5203604 2.1235483,2.4840605 1.712097,2.6182601 1.4066426,2.922959 1.2354358,3.0965385 1.1161051,3.3024577 1.0545922,3.5213571 0.91876164,3.9927054 1.036506,4.5202637 1.4066426,4.8932944 c 0.1069222,0.1056 0.2254607,0.1900793 0.3548233,0.2539891 0.4923683,0.313829 1.4207426,0.300519 2.1826613,0.2190093 L 5.6216144,7.0436552 C 5.4741676,7.3603441 5.3358289,7.695403 5.222571,8.0692917 c 0,0 -0.607739,2.0608093 0.3215584,4.9184573 0,0 0.08844,0.835118 -0.4754731,1.42817 -0.4538243,0.477397 -0.8945814,1.996526 0.5119051,2.579931 l -1.6348502,1.634869 c -0.7636347,-0.0814 -1.691877,-0.0946 -2.1834533,0.220329 -0.1257986,0.0627 -0.2459215,0.14696 -0.3532393,0.253989 -0.3701344,0.371139 -0.48867296,0.901778 -0.3528424,1.37207 0.063892,0.21769 0.1808436,0.425149 0.3528424,0.598728 0.3046624,0.303819 0.7145297,0.437139 1.1137051,0.400179 -0.03696,0.398749 0.098078,0.809377 0.4019482,1.114681 0.1735828,0.171159 0.3793744,0.288639 0.5991591,0.351229 0.4697971,0.136619 0.9991272,0.0176 1.3712416,-0.351229 0.1061302,-0.1056 0.1900837,-0.2266 0.2539735,-0.354529 C 5.4637396,21.743588 5.4488228,20.81606 5.3688298,20.0534 l 2.5352396,-2.535855 c 0.1735837,0.314269 0.3729075,0.942806 0.4790371,2.212731 0,0 0.069172,0.906507 0.8568285,0.763397 0,0 0.404323,-0.0242 0.475869,-1.73927 0,0 0.453296,-0.429108 0.428744,0.594878 0,0 -0.120122,1.191769 0.64272,1.120357 0,0 0.428085,0.261909 0.595199,-1.048187 0,0 0,-1.143588 0.405909,-0.715217 0,0 0.118537,1.66787 0.595595,1.834838 0,0 0.690372,0.214609 0.810231,-0.691128 0,0 -0.0017,-1.452324 0.380168,-1.190317 0,0 0.14309,0.0957 0.165662,0.975697 0,0 -0.02258,0.930047 0.572231,0.882637 0,0 0.618827,0 0.786076,-1.428169 0,0 -0.104412,-1.602002 0.699348,-1.869554 l 2.834226,2.834823 c -0.08118,0.763617 -0.09333,1.692685 0.220972,2.184614 0.06204,0.126939 0.147975,0.247499 0.254898,0.352769 0.371321,0.372129 0.901048,0.488618 1.371241,0.352769 0.217803,-0.0627 0.425311,-0.17996 0.59718,-0.352769 0.305452,-0.304699 0.438909,-0.714447 0.401946,-1.114813 0.397857,0.0374 0.808648,-0.0979 1.114762,-0.401829 0.172131,-0.173579 0.288689,-0.379388 0.352974,-0.596418 0.134906,-0.472558 0.01769,-1.000667 -0.352974,-1.37273 -0.109428,-0.1089 -0.226781,-0.192939 -0.355349,-0.257289 z M 8.2557257,15.346702 C 7.9848562,15.292802 7.7376156,15.191493 7.517435,15.061363 6.8060742,14.642705 6.3946219,13.892035 6.5461616,13.138086 6.7478604,12.152599 7.8374094,11.54308 8.9831914,11.774992 c 0.4782446,0.0979 0.8813806,0.331209 1.1836656,0.635028 0.424785,0.427569 0.640212,0.998137 0.525238,1.57283 -0.201039,0.987796 -1.290985,1.598569 -2.4363693,1.363885 z m 4.1069943,1.31333 c -0.08409,0.0594 -0.176883,0.0946 -0.274962,0.0946 -0.176884,0 -0.333966,-0.1078 -0.43838,-0.276539 -0.10494,0.168739 -0.261234,0.276539 -0.438116,0.276539 -0.09887,0 -0.193251,-0.0352 -0.274962,-0.0946 -0.175959,-0.1309 -0.294497,-0.380159 -0.294497,-0.668688 0,-0.0825 0.01122,-0.159829 0.02852,-0.234519 0.09808,-0.590038 0.979061,-1.332601 0.979061,-1.332601 0,0 0.880062,0.742607 0.978139,1.332601 0.01861,0.0737 0.02811,0.153339 0.02811,0.234519 0.0016,0.288529 -0.119859,0.537568 -0.292911,0.668688 z m 3.794147,-1.925785 c -0.300569,0.294248 -0.698426,0.518427 -1.164658,0.612587 -0.384919,0.0792 -0.760335,0.055 -1.101164,-0.0385 -0.672818,-0.188099 -1.201752,-0.668687 -1.335866,-1.323625 l -7.7e-4,-0.0132 c -0.143883,-0.737877 0.252389,-1.475689 0.942894,-1.895954 0.225856,-0.137389 0.486297,-0.241119 0.768386,-0.298319 1.145386,-0.233529 2.234538,0.376199 2.435448,1.362302 0.118933,0.585858 -0.106128,1.166282 -0.544248,1.595402 z"
     id="path85"
     inkscape:connector-curvature="0"
     style="fill:#bebebe;stroke-width:0.13199782" />
</svg>
