<?xml version="1.0" encoding="iso-8859-1"?>
<svg version="1.1" id="Capa_1" xmlns="http://www.w3.org/2000/svg" xmlns:xlink="http://www.w3.org/1999/xlink" x="0px" y="0px"
 viewBox="0 0 359.52 359.52" style="enable-background:new 0 0 359.52 359.52;" xml:space="preserve">
<path style="fill:#bebebe;" d="M152.56,17.92c-17.12,11.68-32,33.92-42.48,62.56c20.325,4.021,40.965,6.243,61.68,6.64V16.16V9.92
C164.881,11.247,158.346,13.97,152.56,17.92z"/>
<path style="fill:#bebebe;" d="M93.68,187.76c0.521,25.61,4.339,51.046,11.36,75.68c21.969-4.481,44.302-6.944,66.72-7.36v-68.32H93.68z"/>
<path style="fill:#bebebe;" d="M77.68,187.76H0c1.596,36.072,14.061,70.819,35.76,99.68c4.747-2.507,9.707-4.88,14.88-7.12
c12.526-5.376,25.443-9.788,38.64-13.2C82.079,241.262,78.181,214.597,77.68,187.76z"/>
<path style="fill:#bebebe;" d="M254.48,96.08c-21.969,4.481-44.302,6.944-66.72,7.36l0,68.32h78.08C265.319,146.15,261.501,120.714,254.48,96.08z"/>
<path style="fill:#bebebe;" d="M298.16,292.8c-10.607-4.239-21.484-7.766-32.56-10.56c-6.066,18.006-14.95,34.937-26.32,50.16
c-7.227,9.518-16.117,17.649-26.24,24c38.83-7.325,74.169-27.229,100.56-56.64C308.693,297.253,303.547,294.933,298.16,292.8z"/>
<path style="fill:#bebebe;" d="M110.08,278.72c10.56,28.64,25.36,50.88,42.48,62.56c5.76,4.063,12.296,6.896,19.2,8.32v-77.52
C151.045,272.477,130.405,274.699,110.08,278.72z"/>
<path style="fill:#bebebe;" d="M206.96,18.24c-5.76-4.063-12.296-6.896-19.2-8.32v77.52c20.715-0.397,41.355-2.619,61.68-6.64
C238.88,52.16,224.08,29.92,206.96,18.24z"/>
<path style="fill:#bebebe;" d="M187.76,272.08v71.28v6.24c6.879-1.327,13.414-4.05,19.2-8c17.12-11.68,32-33.92,42.48-62.56
C229.125,274.912,208.485,272.583,187.76,272.08z"/>
<path style="fill:#bebebe;" d="M323.76,72.08c-4.64,2.453-9.547,4.827-14.72,7.12c-12.527,5.352-25.445,9.738-38.64,13.12
c7.151,25.891,10.995,52.583,11.44,79.44h77.68C357.924,135.688,345.459,100.941,323.76,72.08z"/>
<path style="fill:#bebebe;" d="M50.48,79.28c-5.333-2.24-10.293-4.613-14.88-7.12C13.974,101.017,1.565,135.732,0,171.76h77.68
c0.448-26.83,4.292-53.496,11.44-79.36C75.927,89.011,63.009,84.625,50.48,79.28z"/>
<path style="fill:#bebebe;" d="M45.92,59.76c4.96,2.507,10.107,4.853,15.44,7.04c10.609,4.232,21.486,7.76,32.56,10.56
c6.081-17.951,14.965-34.826,26.32-50c7.227-9.518,16.117-17.649,26.24-24C107.681,10.62,72.346,30.438,45.92,59.76z"/>
<path style="fill:#bebebe;" d="M105.04,96.08c-7.021,24.634-10.839,50.07-11.36,75.68h78.08v-68.32C149.342,103.024,127.009,100.561,105.04,96.08z"/>
<path style="fill:#bebebe;" d="M281.84,187.76c-0.448,26.83-4.292,53.496-11.44,79.36c13.195,3.385,26.112,7.771,38.64,13.12
c5.333,2.24,10.293,4.613,14.88,7.12c21.631-28.855,34.04-63.571,35.6-99.6H281.84z"/>
<path style="fill:#bebebe;" d="M187.76,187.76v68.32c22.418,0.416,44.751,2.879,66.72,7.36c7.021-24.634,10.839-50.07,11.36-75.68H187.76z"/>
<path style="fill:#bebebe;" d="M120.24,332.4c-11.355-15.174-20.239-32.05-26.32-50c-11.075,2.796-21.952,6.324-32.56,10.56
c-5.333,2.187-10.48,4.533-15.44,7.04c26.391,29.411,61.73,49.315,100.56,56.64C136.336,350.217,127.445,342.004,120.24,332.4z"/>
<path style="fill:#bebebe;" d="M213.04,2.88c10.144,6.423,19.035,14.636,26.24,24.24c11.358,15.173,20.241,32.048,26.32,50
c11.074-2.801,21.951-6.328,32.56-10.56c5.333-2.187,10.48-4.507,15.44-6.96C287.221,30.16,251.881,10.227,213.04,2.88z"/>
</svg>
