<svg width="512" height="512" xmlns="http://www.w3.org/2000/svg">
  <path id="svg_1" fill="#bebebe" d="m387.75,468l-267.5,0c-44.32428,0 -80.25,-35.92572 -80.25,-80.25l0,-267.5c0,-44.32428 35.92572,-80.25 80.25,-80.25l267.5,0c44.32428,0 80.25,35.92572 80.25,80.25l0,267.5c0,44.32428 -35.92572,80.25 -80.25,80.25zm0,0"/>
   <path id="svg_3" d="m279.183594,363.65625c-0.910156,0 -1.839844,-0.113281 -2.769531,-0.367188c-5.679688,-1.519531 -9.054688,-7.378906 -7.535156,-13.058594l51.488281,-192c1.519531,-5.695313 7.375,-9.085938 13.074219,-7.535156c5.679688,1.519531 9.054688,7.375 7.535156,13.058594l-51.488281,192c-1.296875,4.765625 -5.601563,7.902344 -10.304688,7.902344zm0,0"/>
   <path id="svg_4" d="m181.34375,363.65625c-0.910156,0 -1.839844,-0.113281 -2.769531,-0.367188c-5.679688,-1.519531 -9.054688,-7.378906 -7.535156,-13.058594l51.488281,-192c1.519531,-5.695313 7.359375,-9.085938 13.074219,-7.535156c5.679688,1.519531 9.054688,7.375 7.535156,13.058594l-51.488281,192c-1.296875,4.765625 -5.601563,7.902344 -10.304688,7.902344zm0,0"/>
   <path id="svg_5" d="m341.328125,310.328125l-192,0c-5.886719,0 -10.671875,-4.769531 -10.671875,-10.671875s4.785156,-10.65625 10.671875,-10.65625l192,0c5.886719,0 10.671875,4.769531 10.671875,10.65625s-4.785156,10.671875 -10.671875,10.671875zm0,0"/>
   <path id="svg_6" d="m362.671875,225l-192,0c-5.902344,0 -10.671875,-4.785156 -10.671875,-10.671875s4.785156,-10.671875 10.671875,-10.671875l192,0c5.886719,0 10.671875,4.769531 10.671875,10.671875c-0.015625,5.886719 -4.785156,10.671875 -10.671875,10.671875zm0,0"/>
</svg>
